M48
; DRILL file {KiCad 7.0.1} date Mon Apr 10 14:55:25 2023
; FORMAT={-:-/ absolute / inch / decimal}
; #@! TF.CreationDate,2023-04-10T14:55:25+02:00
; #@! TF.GenerationSoftware,Kicad,Pcbnew,7.0.1
; #@! TF.FileFunction,Plated,1,2,PTH
FMAT,2
INCH
; #@! TA.AperFunction,Plated,PTH,ComponentDrill
T1C0.0217
; #@! TA.AperFunction,Plated,PTH,ComponentDrill
T2C0.0394
; #@! TA.AperFunction,Plated,PTH,ComponentDrill
T3C0.0433
; #@! TA.AperFunction,Plated,PTH,ComponentDrill
T4C0.0669
%
G90
G05
T1
X5.25Y-4.0291
X5.3Y-4.0291
X5.35Y-4.0291
X5.4Y-4.0291
X5.45Y-4.0291
X5.5Y-4.0291
X5.55Y-4.0291
X5.6Y-4.0291
X5.65Y-4.0291
X5.7Y-4.0291
X5.75Y-4.0291
X5.8Y-4.0291
X5.85Y-4.0291
X5.9Y-4.0291
X5.95Y-4.0291
T2
X6.3Y-3.4575
X6.3Y-3.5575
X6.3Y-3.6575
X6.3Y-3.9575
X6.3Y-4.0575
X6.3Y-4.1575
T3
X4.95Y-3.1075
X4.95Y-3.7075
X5.05Y-3.1075
X5.05Y-3.7075
X5.15Y-3.1075
X5.15Y-3.7075
X5.25Y-3.1075
X5.25Y-3.7075
X5.35Y-3.1075
X5.35Y-3.7075
X5.45Y-3.1075
X5.45Y-3.7075
X5.55Y-3.1075
X5.55Y-3.7075
X5.65Y-3.1075
X5.65Y-3.7075
X5.75Y-3.1075
X5.75Y-3.7075
X5.85Y-3.1075
X5.85Y-3.7075
X5.95Y-3.1075
X5.95Y-3.7075
X6.05Y-3.1075
X6.05Y-3.7075
T4
X5.0972Y-4.0291
X6.1028Y-4.0291
T0
M30
