G04 #@! TF.GenerationSoftware,KiCad,Pcbnew,7.0.1*
G04 #@! TF.CreationDate,2023-04-10T15:17:22+02:00*
G04 #@! TF.ProjectId,LightingNodeProV2,4c696768-7469-46e6-974e-6f646550726f,rev?*
G04 #@! TF.SameCoordinates,Original*
G04 #@! TF.FileFunction,Copper,L1,Top*
G04 #@! TF.FilePolarity,Positive*
%FSLAX46Y46*%
G04 Gerber Fmt 4.6, Leading zero omitted, Abs format (unit mm)*
G04 Created by KiCad (PCBNEW 7.0.1) date 2023-04-10 15:17:22*
%MOMM*%
%LPD*%
G01*
G04 APERTURE LIST*
G04 #@! TA.AperFunction,ComponentPad*
%ADD10R,1.700000X1.700000*%
G04 #@! TD*
G04 #@! TA.AperFunction,ComponentPad*
%ADD11O,1.700000X1.700000*%
G04 #@! TD*
G04 #@! TA.AperFunction,ComponentPad*
%ADD12R,1.600000X1.600000*%
G04 #@! TD*
G04 #@! TA.AperFunction,ComponentPad*
%ADD13C,1.600000*%
G04 #@! TD*
G04 #@! TA.AperFunction,ComponentPad*
%ADD14C,0.800000*%
G04 #@! TD*
G04 #@! TA.AperFunction,ComponentPad*
%ADD15C,2.500000*%
G04 #@! TD*
G04 #@! TA.AperFunction,Conductor*
%ADD16C,1.000000*%
G04 #@! TD*
G04 APERTURE END LIST*
D10*
X160020000Y-87820000D03*
D11*
X160020000Y-90360000D03*
X160020000Y-92900000D03*
D12*
X125730000Y-94170000D03*
D13*
X128270000Y-94170000D03*
X130810000Y-94170000D03*
X133350000Y-94170000D03*
X135890000Y-94170000D03*
X138430000Y-94170000D03*
X140970000Y-94170000D03*
X143510000Y-94170000D03*
X146050000Y-94170000D03*
X148590000Y-94170000D03*
X151130000Y-94170000D03*
X153670000Y-94170000D03*
X153670000Y-78930000D03*
X151130000Y-78930000D03*
X148590000Y-78930000D03*
X146050000Y-78930000D03*
X143510000Y-78930000D03*
X140970000Y-78930000D03*
X138430000Y-78930000D03*
X135890000Y-78930000D03*
X133350000Y-78930000D03*
X130810000Y-78930000D03*
X128270000Y-78930000D03*
X125730000Y-78930000D03*
D14*
X133350000Y-102340000D03*
X134620000Y-102340000D03*
X135890000Y-102340000D03*
X137160000Y-102340000D03*
X138430000Y-102340000D03*
X139700000Y-102340000D03*
X140970000Y-102340000D03*
X142240000Y-102340000D03*
X143510000Y-102340000D03*
X144780000Y-102340000D03*
X146050000Y-102340000D03*
X147320000Y-102340000D03*
X148590000Y-102340000D03*
X149860000Y-102340000D03*
X151130000Y-102340000D03*
D15*
X129470000Y-102340000D03*
X155010000Y-102340000D03*
D10*
X160020000Y-100520000D03*
D11*
X160020000Y-103060000D03*
X160020000Y-105600000D03*
D16*
X143240000Y-106600000D02*
X144780000Y-108140000D01*
X143510000Y-102340000D02*
X140970000Y-102340000D01*
X143240000Y-102340000D02*
X143240000Y-106600000D01*
X144780000Y-108140000D02*
X165100000Y-108140000D01*
X160020000Y-100520000D02*
X165100000Y-100520000D01*
X165100000Y-87820000D02*
X160020000Y-87820000D01*
X165100000Y-108140000D02*
X165100000Y-87820000D01*
G04 #@! TA.AperFunction,Conductor*
G36*
X166857500Y-75697113D02*
G01*
X166902887Y-75742500D01*
X166919500Y-75804500D01*
X166919500Y-110555500D01*
X166902887Y-110617500D01*
X166857500Y-110662887D01*
X166795500Y-110679500D01*
X122044500Y-110679500D01*
X121982500Y-110662887D01*
X121937113Y-110617500D01*
X121920500Y-110555500D01*
X121920500Y-106804335D01*
X124419500Y-106804335D01*
X124460429Y-107049615D01*
X124499356Y-107163004D01*
X124541172Y-107284810D01*
X124558359Y-107316568D01*
X124659529Y-107503514D01*
X124795036Y-107677612D01*
X124812262Y-107699744D01*
X124995215Y-107868164D01*
X125203393Y-108004173D01*
X125431119Y-108104063D01*
X125672179Y-108165108D01*
X125746480Y-108171264D01*
X125857927Y-108180500D01*
X125857933Y-108180500D01*
X125982067Y-108180500D01*
X125982073Y-108180500D01*
X126083387Y-108172104D01*
X126167821Y-108165108D01*
X126408881Y-108104063D01*
X126636607Y-108004173D01*
X126844785Y-107868164D01*
X127027738Y-107699744D01*
X127180474Y-107503509D01*
X127298828Y-107284810D01*
X127379571Y-107049614D01*
X127420500Y-106804335D01*
X127420500Y-106555665D01*
X127379571Y-106310386D01*
X127298828Y-106075190D01*
X127180474Y-105856491D01*
X127180471Y-105856487D01*
X127180470Y-105856485D01*
X127027740Y-105660259D01*
X127027738Y-105660256D01*
X126844785Y-105491836D01*
X126636607Y-105355827D01*
X126636604Y-105355825D01*
X126511523Y-105300960D01*
X126408881Y-105255937D01*
X126167821Y-105194892D01*
X126167819Y-105194891D01*
X126167816Y-105194891D01*
X125982073Y-105179500D01*
X125982067Y-105179500D01*
X125857933Y-105179500D01*
X125857927Y-105179500D01*
X125672183Y-105194891D01*
X125672179Y-105194891D01*
X125672179Y-105194892D01*
X125431119Y-105255937D01*
X125431116Y-105255938D01*
X125431117Y-105255938D01*
X125203395Y-105355825D01*
X125064607Y-105446499D01*
X124995215Y-105491836D01*
X124995213Y-105491837D01*
X124995214Y-105491837D01*
X124812259Y-105660259D01*
X124659529Y-105856485D01*
X124541170Y-106075194D01*
X124460429Y-106310384D01*
X124419500Y-106555665D01*
X124419500Y-106804335D01*
X121920500Y-106804335D01*
X121920500Y-103742720D01*
X128420831Y-103742720D01*
X128592546Y-103859793D01*
X128828860Y-103973596D01*
X129079496Y-104050908D01*
X129338856Y-104090000D01*
X129601144Y-104090000D01*
X129860503Y-104050908D01*
X130111139Y-103973596D01*
X130347456Y-103859792D01*
X130519167Y-103742720D01*
X129470001Y-102693553D01*
X129470000Y-102693553D01*
X128420831Y-103742720D01*
X121920500Y-103742720D01*
X121920500Y-102339999D01*
X127715092Y-102339999D01*
X127734693Y-102601552D01*
X127793059Y-102857270D01*
X127888882Y-103101424D01*
X128020027Y-103328573D01*
X128067873Y-103388571D01*
X129116446Y-102340000D01*
X129116446Y-102339999D01*
X129823552Y-102339999D01*
X130872124Y-103388571D01*
X130919972Y-103328572D01*
X131051117Y-103101423D01*
X131146940Y-102857270D01*
X131205306Y-102601552D01*
X131224907Y-102340000D01*
X132436496Y-102340000D01*
X132456458Y-102529929D01*
X132515472Y-102711556D01*
X132610957Y-102876941D01*
X132640355Y-102909591D01*
X132738747Y-103018866D01*
X132892520Y-103130589D01*
X132893248Y-103131118D01*
X133067714Y-103208795D01*
X133254511Y-103248500D01*
X133254513Y-103248500D01*
X133445487Y-103248500D01*
X133445489Y-103248500D01*
X133632285Y-103208795D01*
X133632286Y-103208794D01*
X133632288Y-103208794D01*
X133806752Y-103131118D01*
X133912116Y-103054565D01*
X133959219Y-103033595D01*
X134010781Y-103033595D01*
X134057883Y-103054565D01*
X134162520Y-103130589D01*
X134163248Y-103131118D01*
X134337714Y-103208795D01*
X134524511Y-103248500D01*
X134524513Y-103248500D01*
X134715487Y-103248500D01*
X134715489Y-103248500D01*
X134902285Y-103208795D01*
X134902286Y-103208794D01*
X134902288Y-103208794D01*
X135076752Y-103131118D01*
X135182116Y-103054565D01*
X135229219Y-103033595D01*
X135280781Y-103033595D01*
X135327883Y-103054565D01*
X135432520Y-103130589D01*
X135433248Y-103131118D01*
X135607714Y-103208795D01*
X135794511Y-103248500D01*
X135794513Y-103248500D01*
X135985487Y-103248500D01*
X135985489Y-103248500D01*
X136172285Y-103208795D01*
X136172286Y-103208794D01*
X136172288Y-103208794D01*
X136346752Y-103131118D01*
X136459346Y-103049312D01*
X136506448Y-103028342D01*
X136558011Y-103028342D01*
X136605116Y-103049314D01*
X136707521Y-103123716D01*
X136880355Y-103200666D01*
X137065405Y-103240000D01*
X137254594Y-103240000D01*
X137439644Y-103200665D01*
X137597037Y-103130589D01*
X137992961Y-103130589D01*
X138150357Y-103200666D01*
X138335405Y-103240000D01*
X138524594Y-103240000D01*
X138709644Y-103200665D01*
X138867037Y-103130589D01*
X139262961Y-103130589D01*
X139420357Y-103200666D01*
X139605405Y-103240000D01*
X139794595Y-103240000D01*
X139979644Y-103200666D01*
X140152477Y-103123717D01*
X140171921Y-103109589D01*
X140221413Y-103088132D01*
X140275333Y-103089719D01*
X140323473Y-103114049D01*
X140406996Y-103182595D01*
X140582196Y-103276241D01*
X140772299Y-103333908D01*
X140920453Y-103348500D01*
X142107500Y-103348500D01*
X142169500Y-103365113D01*
X142214887Y-103410500D01*
X142231500Y-103472500D01*
X142231500Y-106544358D01*
X142230903Y-106556512D01*
X142226620Y-106599999D01*
X142246090Y-106797699D01*
X142303857Y-106988130D01*
X142305202Y-106990504D01*
X142397404Y-107163003D01*
X142523431Y-107316567D01*
X142557213Y-107344291D01*
X142566230Y-107352464D01*
X144027535Y-108813769D01*
X144035706Y-108822784D01*
X144063432Y-108856568D01*
X144216996Y-108982595D01*
X144304596Y-109029418D01*
X144392195Y-109076241D01*
X144436442Y-109089662D01*
X144582297Y-109133909D01*
X144617747Y-109137400D01*
X144780000Y-109153380D01*
X144823488Y-109149096D01*
X144835642Y-109148500D01*
X165044360Y-109148500D01*
X165056514Y-109149097D01*
X165100000Y-109153380D01*
X165297701Y-109133908D01*
X165487804Y-109076241D01*
X165663004Y-108982595D01*
X165816568Y-108856568D01*
X165942595Y-108703004D01*
X166036241Y-108527804D01*
X166093908Y-108337701D01*
X166108500Y-108189547D01*
X166113380Y-108140000D01*
X166109097Y-108096514D01*
X166108500Y-108084360D01*
X166108500Y-100575640D01*
X166109097Y-100563486D01*
X166109253Y-100561897D01*
X166113380Y-100520000D01*
X166109097Y-100476514D01*
X166108500Y-100464360D01*
X166108500Y-87875640D01*
X166109097Y-87863486D01*
X166109253Y-87861897D01*
X166113380Y-87820000D01*
X166093908Y-87622299D01*
X166036241Y-87432196D01*
X165942595Y-87256996D01*
X165816568Y-87103432D01*
X165663004Y-86977405D01*
X165663003Y-86977404D01*
X165558162Y-86921366D01*
X165487804Y-86883759D01*
X165297701Y-86826092D01*
X165297698Y-86826091D01*
X165149547Y-86811500D01*
X165100000Y-86806620D01*
X165099999Y-86806620D01*
X165056514Y-86810903D01*
X165044360Y-86811500D01*
X161439695Y-86811500D01*
X161390882Y-86801488D01*
X161349951Y-86773069D01*
X161323513Y-86730832D01*
X161320889Y-86723796D01*
X161298857Y-86694365D01*
X161233261Y-86606738D01*
X161116203Y-86519110D01*
X160979205Y-86468011D01*
X160948919Y-86464755D01*
X160918638Y-86461500D01*
X159121362Y-86461500D01*
X159094445Y-86464393D01*
X159060794Y-86468011D01*
X158923796Y-86519110D01*
X158806738Y-86606738D01*
X158719110Y-86723796D01*
X158668011Y-86860794D01*
X158661500Y-86921366D01*
X158661500Y-88718634D01*
X158668011Y-88779205D01*
X158719110Y-88916203D01*
X158806738Y-89033261D01*
X158923793Y-89120887D01*
X158923796Y-89120889D01*
X159041596Y-89164826D01*
X159091129Y-89198840D01*
X159118856Y-89252151D01*
X159118263Y-89312237D01*
X159089490Y-89364990D01*
X158944279Y-89522730D01*
X158821138Y-89711211D01*
X158730705Y-89917381D01*
X158675435Y-90135636D01*
X158656843Y-90359999D01*
X158675435Y-90584363D01*
X158730705Y-90802618D01*
X158821138Y-91008788D01*
X158821140Y-91008791D01*
X158944278Y-91197268D01*
X159096760Y-91362906D01*
X159274424Y-91501189D01*
X159317697Y-91524607D01*
X159363336Y-91567156D01*
X159382475Y-91626545D01*
X159370267Y-91687737D01*
X159329803Y-91735236D01*
X159148918Y-91861893D01*
X158981890Y-92028921D01*
X158846400Y-92222421D01*
X158746569Y-92436507D01*
X158689364Y-92649999D01*
X158689364Y-92650000D01*
X161350636Y-92650000D01*
X161350635Y-92649999D01*
X161293430Y-92436507D01*
X161193599Y-92222421D01*
X161058109Y-92028921D01*
X160891081Y-91861893D01*
X160710197Y-91735236D01*
X160669733Y-91687737D01*
X160657525Y-91626545D01*
X160676664Y-91567156D01*
X160722302Y-91524607D01*
X160765576Y-91501189D01*
X160943240Y-91362906D01*
X161095722Y-91197268D01*
X161218860Y-91008791D01*
X161309296Y-90802616D01*
X161364564Y-90584368D01*
X161383156Y-90360000D01*
X161364564Y-90135632D01*
X161309296Y-89917384D01*
X161218860Y-89711209D01*
X161095722Y-89522732D01*
X161095721Y-89522731D01*
X161095718Y-89522726D01*
X160950510Y-89364990D01*
X160921736Y-89312238D01*
X160921143Y-89252151D01*
X160948870Y-89198840D01*
X160998401Y-89164827D01*
X161116204Y-89120889D01*
X161233261Y-89033261D01*
X161320889Y-88916204D01*
X161323513Y-88909166D01*
X161349951Y-88866931D01*
X161390882Y-88838512D01*
X161439695Y-88828500D01*
X163967500Y-88828500D01*
X164029500Y-88845113D01*
X164074887Y-88890500D01*
X164091500Y-88952500D01*
X164091500Y-99387500D01*
X164074887Y-99449500D01*
X164029500Y-99494887D01*
X163967500Y-99511500D01*
X161439695Y-99511500D01*
X161390882Y-99501488D01*
X161349951Y-99473069D01*
X161323513Y-99430832D01*
X161320889Y-99423796D01*
X161293718Y-99387500D01*
X161233261Y-99306738D01*
X161116203Y-99219110D01*
X160979205Y-99168011D01*
X160948919Y-99164755D01*
X160918638Y-99161500D01*
X159121362Y-99161500D01*
X159094445Y-99164393D01*
X159060794Y-99168011D01*
X158923796Y-99219110D01*
X158806738Y-99306738D01*
X158719110Y-99423796D01*
X158668011Y-99560794D01*
X158661500Y-99621366D01*
X158661500Y-101418634D01*
X158668011Y-101479205D01*
X158719110Y-101616203D01*
X158806738Y-101733261D01*
X158923793Y-101820887D01*
X158923796Y-101820889D01*
X159041596Y-101864826D01*
X159091129Y-101898840D01*
X159118856Y-101952151D01*
X159118263Y-102012237D01*
X159089490Y-102064990D01*
X158944279Y-102222730D01*
X158821138Y-102411211D01*
X158730705Y-102617381D01*
X158730704Y-102617384D01*
X158702742Y-102727804D01*
X158675435Y-102835636D01*
X158656843Y-103059999D01*
X158675435Y-103284363D01*
X158675435Y-103284366D01*
X158675436Y-103284368D01*
X158695883Y-103365113D01*
X158730705Y-103502618D01*
X158821138Y-103708788D01*
X158821140Y-103708791D01*
X158944278Y-103897268D01*
X159096760Y-104062906D01*
X159274424Y-104201189D01*
X159317697Y-104224607D01*
X159363336Y-104267156D01*
X159382475Y-104326545D01*
X159370267Y-104387737D01*
X159329803Y-104435236D01*
X159148918Y-104561893D01*
X158981890Y-104728921D01*
X158846400Y-104922421D01*
X158746569Y-105136507D01*
X158689364Y-105349999D01*
X158689364Y-105350000D01*
X161350636Y-105350000D01*
X161350635Y-105349999D01*
X161293430Y-105136507D01*
X161193599Y-104922421D01*
X161058109Y-104728921D01*
X160891081Y-104561893D01*
X160710197Y-104435236D01*
X160669733Y-104387737D01*
X160657525Y-104326545D01*
X160676664Y-104267156D01*
X160722302Y-104224607D01*
X160765576Y-104201189D01*
X160943240Y-104062906D01*
X161095722Y-103897268D01*
X161218860Y-103708791D01*
X161309296Y-103502616D01*
X161364564Y-103284368D01*
X161383156Y-103060000D01*
X161364564Y-102835632D01*
X161309296Y-102617384D01*
X161218860Y-102411209D01*
X161095722Y-102222732D01*
X161095721Y-102222731D01*
X161095718Y-102222726D01*
X160950510Y-102064990D01*
X160921736Y-102012238D01*
X160921143Y-101952151D01*
X160948870Y-101898840D01*
X160998401Y-101864827D01*
X161116204Y-101820889D01*
X161233261Y-101733261D01*
X161320889Y-101616204D01*
X161323513Y-101609166D01*
X161349951Y-101566931D01*
X161390882Y-101538512D01*
X161439695Y-101528500D01*
X163967500Y-101528500D01*
X164029500Y-101545113D01*
X164074887Y-101590500D01*
X164091500Y-101652500D01*
X164091500Y-107007500D01*
X164074887Y-107069500D01*
X164029500Y-107114887D01*
X163967500Y-107131500D01*
X160462239Y-107131500D01*
X160404982Y-107117489D01*
X160360664Y-107078624D01*
X160339300Y-107023685D01*
X160345717Y-106965090D01*
X160378466Y-106916078D01*
X160430145Y-106887725D01*
X160483492Y-106873430D01*
X160697576Y-106773600D01*
X160891081Y-106638106D01*
X161058106Y-106471081D01*
X161193600Y-106277576D01*
X161293430Y-106063492D01*
X161350636Y-105850000D01*
X158689364Y-105850000D01*
X158746569Y-106063492D01*
X158846399Y-106277576D01*
X158981893Y-106471081D01*
X159148918Y-106638106D01*
X159342423Y-106773600D01*
X159556507Y-106873430D01*
X159609855Y-106887725D01*
X159661534Y-106916078D01*
X159694283Y-106965090D01*
X159700700Y-107023685D01*
X159679336Y-107078624D01*
X159635018Y-107117489D01*
X159577761Y-107131500D01*
X145249096Y-107131500D01*
X145201643Y-107122061D01*
X145161415Y-107095181D01*
X144284819Y-106218585D01*
X144257939Y-106178357D01*
X144248500Y-106130904D01*
X144248500Y-103742720D01*
X153960831Y-103742720D01*
X154132546Y-103859793D01*
X154368860Y-103973596D01*
X154619496Y-104050908D01*
X154878856Y-104090000D01*
X155141144Y-104090000D01*
X155400503Y-104050908D01*
X155651139Y-103973596D01*
X155887456Y-103859792D01*
X156059167Y-103742720D01*
X155010001Y-102693553D01*
X155010000Y-102693553D01*
X153960831Y-103742720D01*
X144248500Y-103742720D01*
X144248500Y-103279477D01*
X144263527Y-103220309D01*
X144304964Y-103175482D01*
X144362771Y-103155859D01*
X144422935Y-103166197D01*
X144500355Y-103200666D01*
X144685405Y-103240000D01*
X144874594Y-103240000D01*
X145059644Y-103200665D01*
X145217037Y-103130589D01*
X145612961Y-103130589D01*
X145770357Y-103200666D01*
X145955405Y-103240000D01*
X146144594Y-103240000D01*
X146329644Y-103200665D01*
X146487037Y-103130589D01*
X146882961Y-103130589D01*
X147040357Y-103200666D01*
X147225405Y-103240000D01*
X147414595Y-103240000D01*
X147599644Y-103200666D01*
X147772482Y-103123714D01*
X147874883Y-103049315D01*
X147921987Y-103028342D01*
X147973550Y-103028342D01*
X148020654Y-103049313D01*
X148035363Y-103060000D01*
X148133248Y-103131118D01*
X148307714Y-103208795D01*
X148494511Y-103248500D01*
X148494513Y-103248500D01*
X148685487Y-103248500D01*
X148685489Y-103248500D01*
X148872285Y-103208795D01*
X148872286Y-103208794D01*
X148872288Y-103208794D01*
X149046752Y-103131118D01*
X149152116Y-103054565D01*
X149199219Y-103033595D01*
X149250781Y-103033595D01*
X149297883Y-103054565D01*
X149402520Y-103130589D01*
X149403248Y-103131118D01*
X149577714Y-103208795D01*
X149764511Y-103248500D01*
X149764513Y-103248500D01*
X149955487Y-103248500D01*
X149955489Y-103248500D01*
X150142285Y-103208795D01*
X150142286Y-103208794D01*
X150142288Y-103208794D01*
X150316752Y-103131118D01*
X150422116Y-103054565D01*
X150469219Y-103033595D01*
X150520781Y-103033595D01*
X150567883Y-103054565D01*
X150672520Y-103130589D01*
X150673248Y-103131118D01*
X150847714Y-103208795D01*
X151034511Y-103248500D01*
X151034513Y-103248500D01*
X151225487Y-103248500D01*
X151225489Y-103248500D01*
X151412285Y-103208795D01*
X151412286Y-103208794D01*
X151412288Y-103208794D01*
X151586752Y-103131118D01*
X151741253Y-103018866D01*
X151869040Y-102876944D01*
X151964527Y-102711556D01*
X152023542Y-102529928D01*
X152043504Y-102340000D01*
X153255092Y-102340000D01*
X153274693Y-102601552D01*
X153333059Y-102857270D01*
X153428882Y-103101424D01*
X153560027Y-103328573D01*
X153607873Y-103388571D01*
X154656444Y-102340000D01*
X155363553Y-102340000D01*
X156412124Y-103388571D01*
X156459972Y-103328572D01*
X156591117Y-103101423D01*
X156686940Y-102857270D01*
X156745306Y-102601552D01*
X156764907Y-102340000D01*
X156745306Y-102078447D01*
X156686940Y-101822729D01*
X156591117Y-101578575D01*
X156459972Y-101351426D01*
X156412125Y-101291427D01*
X156412124Y-101291427D01*
X155363553Y-102339998D01*
X155363553Y-102340000D01*
X154656444Y-102340000D01*
X154656445Y-102339999D01*
X153607874Y-101291428D01*
X153560026Y-101351428D01*
X153428882Y-101578576D01*
X153333059Y-101822729D01*
X153274693Y-102078447D01*
X153255092Y-102340000D01*
X152043504Y-102340000D01*
X152023542Y-102150072D01*
X151970377Y-101986447D01*
X151964527Y-101968443D01*
X151869042Y-101803058D01*
X151806196Y-101733261D01*
X151741253Y-101661134D01*
X151616390Y-101570415D01*
X151586751Y-101548881D01*
X151412285Y-101471204D01*
X151225489Y-101431500D01*
X151225487Y-101431500D01*
X151034513Y-101431500D01*
X151034511Y-101431500D01*
X150847714Y-101471204D01*
X150673245Y-101548882D01*
X150567884Y-101625432D01*
X150520780Y-101646404D01*
X150469217Y-101646404D01*
X150422114Y-101625432D01*
X150340241Y-101565948D01*
X150316751Y-101548881D01*
X150142285Y-101471204D01*
X149955489Y-101431500D01*
X149955487Y-101431500D01*
X149764513Y-101431500D01*
X149764511Y-101431500D01*
X149577714Y-101471204D01*
X149403245Y-101548882D01*
X149297884Y-101625432D01*
X149250780Y-101646404D01*
X149199217Y-101646404D01*
X149152114Y-101625432D01*
X149070241Y-101565948D01*
X149046751Y-101548881D01*
X148872285Y-101471204D01*
X148685489Y-101431500D01*
X148685487Y-101431500D01*
X148494513Y-101431500D01*
X148494511Y-101431500D01*
X148307714Y-101471204D01*
X148133248Y-101548881D01*
X148020655Y-101630686D01*
X147973550Y-101651658D01*
X147921987Y-101651658D01*
X147874883Y-101630685D01*
X147772482Y-101556285D01*
X147599644Y-101479333D01*
X147414595Y-101440000D01*
X147225405Y-101440000D01*
X147040355Y-101479333D01*
X146882961Y-101549409D01*
X147320000Y-101986447D01*
X147585871Y-102252318D01*
X147617965Y-102307905D01*
X147617965Y-102372093D01*
X147585871Y-102427680D01*
X146882961Y-103130589D01*
X146487037Y-103130589D01*
X146050001Y-102693553D01*
X146050000Y-102693553D01*
X145612961Y-103130589D01*
X145217037Y-103130589D01*
X144556158Y-102469711D01*
X144527087Y-102423802D01*
X144520437Y-102369878D01*
X144523380Y-102340000D01*
X145133553Y-102340000D01*
X145415000Y-102621447D01*
X145696447Y-102340000D01*
X146403553Y-102340000D01*
X146685000Y-102621447D01*
X146966447Y-102340000D01*
X146685000Y-102058553D01*
X146403553Y-102340000D01*
X145696447Y-102340000D01*
X145415000Y-102058553D01*
X145133553Y-102340000D01*
X144523380Y-102340000D01*
X144520436Y-102310118D01*
X144527087Y-102256195D01*
X144556158Y-102210286D01*
X144780000Y-101986446D01*
X144780000Y-101986447D01*
X145217037Y-101549409D01*
X145612961Y-101549409D01*
X146050000Y-101986447D01*
X146050001Y-101986447D01*
X146487037Y-101549409D01*
X146329644Y-101479333D01*
X146144595Y-101440000D01*
X145955405Y-101440000D01*
X145770355Y-101479333D01*
X145612961Y-101549409D01*
X145217037Y-101549409D01*
X145059644Y-101479333D01*
X144874595Y-101440000D01*
X144685405Y-101440000D01*
X144500355Y-101479333D01*
X144327520Y-101556284D01*
X144308071Y-101570415D01*
X144258580Y-101591869D01*
X144204664Y-101590279D01*
X144156524Y-101565948D01*
X144073004Y-101497405D01*
X144073003Y-101497404D01*
X143949704Y-101431500D01*
X143897804Y-101403759D01*
X143707701Y-101346092D01*
X143707698Y-101346091D01*
X143577717Y-101333289D01*
X143559547Y-101331500D01*
X143559546Y-101331500D01*
X143295640Y-101331500D01*
X143283486Y-101330903D01*
X143240000Y-101326620D01*
X143196514Y-101330903D01*
X143184360Y-101331500D01*
X140920453Y-101331500D01*
X140904267Y-101333094D01*
X140772301Y-101346091D01*
X140708931Y-101365314D01*
X140582196Y-101403759D01*
X140582192Y-101403760D01*
X140582192Y-101403761D01*
X140406996Y-101497404D01*
X140323475Y-101565948D01*
X140275333Y-101590279D01*
X140221416Y-101591867D01*
X140171926Y-101570412D01*
X140152481Y-101556284D01*
X139979644Y-101479333D01*
X139794595Y-101440000D01*
X139605405Y-101440000D01*
X139420355Y-101479333D01*
X139262961Y-101549409D01*
X139700000Y-101986447D01*
X139923840Y-102210287D01*
X139952910Y-102256193D01*
X139959562Y-102310120D01*
X139956619Y-102339999D01*
X139959562Y-102369878D01*
X139952910Y-102423805D01*
X139923840Y-102469711D01*
X139262961Y-103130589D01*
X138867037Y-103130589D01*
X138430001Y-102693553D01*
X138430000Y-102693553D01*
X137992961Y-103130589D01*
X137597037Y-103130589D01*
X136894128Y-102427680D01*
X136862034Y-102372092D01*
X136862034Y-102340000D01*
X137513553Y-102340000D01*
X137795000Y-102621447D01*
X138076447Y-102340000D01*
X138783553Y-102340000D01*
X139065000Y-102621447D01*
X139346447Y-102340000D01*
X139065000Y-102058553D01*
X138783553Y-102340000D01*
X138076447Y-102340000D01*
X137795000Y-102058553D01*
X137513553Y-102340000D01*
X136862034Y-102340000D01*
X136862034Y-102307905D01*
X136894128Y-102252318D01*
X137160000Y-101986447D01*
X137597037Y-101549409D01*
X137992961Y-101549409D01*
X138430000Y-101986447D01*
X138430001Y-101986447D01*
X138867037Y-101549409D01*
X138709644Y-101479333D01*
X138524595Y-101440000D01*
X138335405Y-101440000D01*
X138150355Y-101479333D01*
X137992961Y-101549409D01*
X137597037Y-101549409D01*
X137439644Y-101479333D01*
X137254595Y-101440000D01*
X137065405Y-101440000D01*
X136880355Y-101479333D01*
X136707522Y-101556283D01*
X136605115Y-101630686D01*
X136558010Y-101651657D01*
X136506449Y-101651657D01*
X136459344Y-101630685D01*
X136346751Y-101548881D01*
X136172285Y-101471204D01*
X135985489Y-101431500D01*
X135985487Y-101431500D01*
X135794513Y-101431500D01*
X135794511Y-101431500D01*
X135607714Y-101471204D01*
X135433245Y-101548882D01*
X135327884Y-101625432D01*
X135280780Y-101646404D01*
X135229217Y-101646404D01*
X135182114Y-101625432D01*
X135100241Y-101565948D01*
X135076751Y-101548881D01*
X134902285Y-101471204D01*
X134715489Y-101431500D01*
X134715487Y-101431500D01*
X134524513Y-101431500D01*
X134524511Y-101431500D01*
X134337714Y-101471204D01*
X134163245Y-101548882D01*
X134057884Y-101625432D01*
X134010780Y-101646404D01*
X133959217Y-101646404D01*
X133912114Y-101625432D01*
X133830241Y-101565948D01*
X133806751Y-101548881D01*
X133632285Y-101471204D01*
X133445489Y-101431500D01*
X133445487Y-101431500D01*
X133254513Y-101431500D01*
X133254511Y-101431500D01*
X133067714Y-101471204D01*
X132893248Y-101548881D01*
X132738748Y-101661133D01*
X132610957Y-101803058D01*
X132515472Y-101968443D01*
X132456458Y-102150070D01*
X132436496Y-102340000D01*
X131224907Y-102340000D01*
X131205306Y-102078447D01*
X131146940Y-101822729D01*
X131051117Y-101578575D01*
X130919972Y-101351426D01*
X130872125Y-101291427D01*
X129823552Y-102339999D01*
X129116446Y-102339999D01*
X129116446Y-102339998D01*
X128067874Y-101291428D01*
X128020026Y-101351428D01*
X127888882Y-101578576D01*
X127793059Y-101822729D01*
X127734693Y-102078447D01*
X127715092Y-102339999D01*
X121920500Y-102339999D01*
X121920500Y-100937278D01*
X128420831Y-100937278D01*
X129469998Y-101986446D01*
X129469999Y-101986446D01*
X130519167Y-100937278D01*
X153960832Y-100937278D01*
X155010000Y-101986446D01*
X155010001Y-101986446D01*
X156059167Y-100937278D01*
X155887451Y-100820205D01*
X155651139Y-100706403D01*
X155400503Y-100629091D01*
X155141144Y-100590000D01*
X154878856Y-100590000D01*
X154619496Y-100629091D01*
X154368860Y-100706403D01*
X154132545Y-100820206D01*
X153960832Y-100937278D01*
X130519167Y-100937278D01*
X130347451Y-100820205D01*
X130111139Y-100706403D01*
X129860503Y-100629091D01*
X129601144Y-100590000D01*
X129338856Y-100590000D01*
X129079496Y-100629091D01*
X128828860Y-100706403D01*
X128592545Y-100820206D01*
X128420831Y-100937278D01*
X121920500Y-100937278D01*
X121920500Y-95018634D01*
X124421500Y-95018634D01*
X124428011Y-95079205D01*
X124479110Y-95216203D01*
X124566738Y-95333261D01*
X124683796Y-95420889D01*
X124820794Y-95471988D01*
X124820797Y-95471988D01*
X124820799Y-95471989D01*
X124881362Y-95478500D01*
X126578634Y-95478500D01*
X126578638Y-95478500D01*
X126639201Y-95471989D01*
X126639203Y-95471988D01*
X126639205Y-95471988D01*
X126717124Y-95442924D01*
X126776204Y-95420889D01*
X126893261Y-95333261D01*
X126980889Y-95216204D01*
X127031989Y-95079201D01*
X127033569Y-95064500D01*
X127053948Y-95008580D01*
X127098037Y-94968596D01*
X127155679Y-94953762D01*
X127213592Y-94967496D01*
X127258431Y-95006629D01*
X127263802Y-95014300D01*
X127425700Y-95176198D01*
X127613251Y-95307523D01*
X127820757Y-95404284D01*
X128041913Y-95463543D01*
X128270000Y-95483498D01*
X128498087Y-95463543D01*
X128719243Y-95404284D01*
X128926749Y-95307523D01*
X129010291Y-95249026D01*
X130084526Y-95249026D01*
X130157515Y-95300133D01*
X130363673Y-95396266D01*
X130583397Y-95455141D01*
X130810000Y-95474966D01*
X131036602Y-95455141D01*
X131256326Y-95396266D01*
X131462480Y-95300134D01*
X131535471Y-95249026D01*
X132624526Y-95249026D01*
X132697515Y-95300133D01*
X132903673Y-95396266D01*
X133123397Y-95455141D01*
X133350000Y-95474966D01*
X133576602Y-95455141D01*
X133796326Y-95396266D01*
X134002480Y-95300134D01*
X134075472Y-95249025D01*
X133350001Y-94523553D01*
X133350000Y-94523553D01*
X132624526Y-95249025D01*
X132624526Y-95249026D01*
X131535471Y-95249026D01*
X131535472Y-95249025D01*
X130810001Y-94523553D01*
X130810000Y-94523553D01*
X130084526Y-95249025D01*
X130084526Y-95249026D01*
X129010291Y-95249026D01*
X129114300Y-95176198D01*
X129276198Y-95014300D01*
X129407523Y-94826749D01*
X129432308Y-94773596D01*
X129478061Y-94721424D01*
X129544686Y-94702003D01*
X129611312Y-94721422D01*
X129657070Y-94773597D01*
X129679867Y-94822485D01*
X129730972Y-94895471D01*
X129730973Y-94895472D01*
X130456446Y-94170000D01*
X130456446Y-94169999D01*
X131163553Y-94169999D01*
X131889025Y-94895472D01*
X131940135Y-94822479D01*
X131967618Y-94763543D01*
X132013375Y-94711367D01*
X132080000Y-94691947D01*
X132146625Y-94711367D01*
X132192382Y-94763543D01*
X132219865Y-94822482D01*
X132270972Y-94895471D01*
X132270973Y-94895472D01*
X132996446Y-94169999D01*
X133703553Y-94169999D01*
X134429025Y-94895472D01*
X134480133Y-94822481D01*
X134502927Y-94773600D01*
X134548683Y-94721423D01*
X134615309Y-94702003D01*
X134681934Y-94721422D01*
X134727692Y-94773598D01*
X134752475Y-94826746D01*
X134752476Y-94826748D01*
X134752477Y-94826749D01*
X134883802Y-95014300D01*
X135045700Y-95176198D01*
X135233251Y-95307523D01*
X135440757Y-95404284D01*
X135661913Y-95463543D01*
X135890000Y-95483498D01*
X136118087Y-95463543D01*
X136339243Y-95404284D01*
X136546749Y-95307523D01*
X136734300Y-95176198D01*
X136896198Y-95014300D01*
X137027523Y-94826749D01*
X137047617Y-94783655D01*
X137093375Y-94731479D01*
X137160000Y-94712059D01*
X137226625Y-94731479D01*
X137272382Y-94783655D01*
X137292477Y-94826749D01*
X137423802Y-95014300D01*
X137585700Y-95176198D01*
X137773251Y-95307523D01*
X137980757Y-95404284D01*
X138201913Y-95463543D01*
X138430000Y-95483498D01*
X138658087Y-95463543D01*
X138879243Y-95404284D01*
X139086749Y-95307523D01*
X139274300Y-95176198D01*
X139436198Y-95014300D01*
X139567523Y-94826749D01*
X139587617Y-94783655D01*
X139633375Y-94731479D01*
X139700000Y-94712059D01*
X139766625Y-94731479D01*
X139812382Y-94783655D01*
X139832477Y-94826749D01*
X139963802Y-95014300D01*
X140125700Y-95176198D01*
X140313251Y-95307523D01*
X140520757Y-95404284D01*
X140741913Y-95463543D01*
X140970000Y-95483498D01*
X141198087Y-95463543D01*
X141419243Y-95404284D01*
X141626749Y-95307523D01*
X141814300Y-95176198D01*
X141976198Y-95014300D01*
X142107523Y-94826749D01*
X142127617Y-94783655D01*
X142173375Y-94731479D01*
X142240000Y-94712059D01*
X142306625Y-94731479D01*
X142352382Y-94783655D01*
X142372477Y-94826749D01*
X142503802Y-95014300D01*
X142665700Y-95176198D01*
X142853251Y-95307523D01*
X143060757Y-95404284D01*
X143281913Y-95463543D01*
X143510000Y-95483498D01*
X143738087Y-95463543D01*
X143959243Y-95404284D01*
X144166749Y-95307523D01*
X144354300Y-95176198D01*
X144516198Y-95014300D01*
X144647523Y-94826749D01*
X144667617Y-94783655D01*
X144713375Y-94731479D01*
X144780000Y-94712059D01*
X144846625Y-94731479D01*
X144892382Y-94783655D01*
X144912477Y-94826749D01*
X145043802Y-95014300D01*
X145205700Y-95176198D01*
X145393251Y-95307523D01*
X145600757Y-95404284D01*
X145821913Y-95463543D01*
X146050000Y-95483498D01*
X146278087Y-95463543D01*
X146499243Y-95404284D01*
X146706749Y-95307523D01*
X146894300Y-95176198D01*
X147056198Y-95014300D01*
X147187523Y-94826749D01*
X147207617Y-94783655D01*
X147253375Y-94731479D01*
X147320000Y-94712059D01*
X147386625Y-94731479D01*
X147432382Y-94783655D01*
X147452477Y-94826749D01*
X147583802Y-95014300D01*
X147745700Y-95176198D01*
X147933251Y-95307523D01*
X148140757Y-95404284D01*
X148361913Y-95463543D01*
X148590000Y-95483498D01*
X148818087Y-95463543D01*
X149039243Y-95404284D01*
X149246749Y-95307523D01*
X149434300Y-95176198D01*
X149596198Y-95014300D01*
X149727523Y-94826749D01*
X149747617Y-94783655D01*
X149793375Y-94731479D01*
X149860000Y-94712059D01*
X149926625Y-94731479D01*
X149972382Y-94783655D01*
X149992477Y-94826749D01*
X150123802Y-95014300D01*
X150285700Y-95176198D01*
X150473251Y-95307523D01*
X150680757Y-95404284D01*
X150901913Y-95463543D01*
X151130000Y-95483498D01*
X151358087Y-95463543D01*
X151579243Y-95404284D01*
X151786749Y-95307523D01*
X151974300Y-95176198D01*
X152136198Y-95014300D01*
X152267523Y-94826749D01*
X152287617Y-94783655D01*
X152333375Y-94731479D01*
X152400000Y-94712059D01*
X152466625Y-94731479D01*
X152512382Y-94783655D01*
X152532477Y-94826749D01*
X152663802Y-95014300D01*
X152825700Y-95176198D01*
X153013251Y-95307523D01*
X153220757Y-95404284D01*
X153441913Y-95463543D01*
X153670000Y-95483498D01*
X153898087Y-95463543D01*
X154119243Y-95404284D01*
X154326749Y-95307523D01*
X154514300Y-95176198D01*
X154676198Y-95014300D01*
X154807523Y-94826749D01*
X154904284Y-94619243D01*
X154963543Y-94398087D01*
X154983498Y-94170000D01*
X154963543Y-93941913D01*
X154904284Y-93720757D01*
X154807523Y-93513251D01*
X154676198Y-93325700D01*
X154514300Y-93163802D01*
X154494589Y-93150000D01*
X158689364Y-93150000D01*
X158746569Y-93363492D01*
X158846399Y-93577576D01*
X158981893Y-93771081D01*
X159148918Y-93938106D01*
X159342423Y-94073600D01*
X159556507Y-94173430D01*
X159769999Y-94230635D01*
X159770000Y-94230636D01*
X159770000Y-93150000D01*
X160270000Y-93150000D01*
X160270000Y-94230635D01*
X160483492Y-94173430D01*
X160697576Y-94073600D01*
X160891081Y-93938106D01*
X161058106Y-93771081D01*
X161193600Y-93577576D01*
X161293430Y-93363492D01*
X161350636Y-93150000D01*
X160270000Y-93150000D01*
X159770000Y-93150000D01*
X158689364Y-93150000D01*
X154494589Y-93150000D01*
X154326749Y-93032477D01*
X154326746Y-93032476D01*
X154326744Y-93032474D01*
X154119246Y-92935717D01*
X154119243Y-92935716D01*
X153929440Y-92884858D01*
X153898084Y-92876456D01*
X153669999Y-92856501D01*
X153441915Y-92876456D01*
X153220753Y-92935717D01*
X153013255Y-93032474D01*
X152825696Y-93163805D01*
X152663805Y-93325696D01*
X152663804Y-93325698D01*
X152663802Y-93325700D01*
X152580599Y-93444527D01*
X152532476Y-93513253D01*
X152512382Y-93556345D01*
X152466625Y-93608521D01*
X152400000Y-93627940D01*
X152333375Y-93608521D01*
X152287618Y-93556345D01*
X152286214Y-93553334D01*
X152267523Y-93513251D01*
X152136198Y-93325700D01*
X151974300Y-93163802D01*
X151786749Y-93032477D01*
X151786746Y-93032476D01*
X151786744Y-93032474D01*
X151579246Y-92935717D01*
X151579243Y-92935716D01*
X151389440Y-92884858D01*
X151358084Y-92876456D01*
X151129999Y-92856501D01*
X150901915Y-92876456D01*
X150680753Y-92935717D01*
X150473255Y-93032474D01*
X150285696Y-93163805D01*
X150123805Y-93325696D01*
X150123804Y-93325698D01*
X150123802Y-93325700D01*
X150040599Y-93444527D01*
X149992476Y-93513253D01*
X149972382Y-93556345D01*
X149926625Y-93608521D01*
X149860000Y-93627940D01*
X149793375Y-93608521D01*
X149747618Y-93556345D01*
X149746214Y-93553334D01*
X149727523Y-93513251D01*
X149596198Y-93325700D01*
X149434300Y-93163802D01*
X149246749Y-93032477D01*
X149246746Y-93032476D01*
X149246744Y-93032474D01*
X149039246Y-92935717D01*
X149039243Y-92935716D01*
X148849440Y-92884858D01*
X148818084Y-92876456D01*
X148589999Y-92856501D01*
X148361915Y-92876456D01*
X148140753Y-92935717D01*
X147933255Y-93032474D01*
X147745696Y-93163805D01*
X147583805Y-93325696D01*
X147583804Y-93325698D01*
X147583802Y-93325700D01*
X147500599Y-93444527D01*
X147452476Y-93513253D01*
X147432382Y-93556345D01*
X147386625Y-93608521D01*
X147320000Y-93627940D01*
X147253375Y-93608521D01*
X147207618Y-93556345D01*
X147206214Y-93553334D01*
X147187523Y-93513251D01*
X147056198Y-93325700D01*
X146894300Y-93163802D01*
X146706749Y-93032477D01*
X146706746Y-93032476D01*
X146706744Y-93032474D01*
X146499246Y-92935717D01*
X146499243Y-92935716D01*
X146309440Y-92884858D01*
X146278084Y-92876456D01*
X146049999Y-92856501D01*
X145821915Y-92876456D01*
X145600753Y-92935717D01*
X145393255Y-93032474D01*
X145205696Y-93163805D01*
X145043805Y-93325696D01*
X145043804Y-93325698D01*
X145043802Y-93325700D01*
X144960599Y-93444527D01*
X144912476Y-93513253D01*
X144892382Y-93556345D01*
X144846625Y-93608521D01*
X144780000Y-93627940D01*
X144713375Y-93608521D01*
X144667618Y-93556345D01*
X144666214Y-93553334D01*
X144647523Y-93513251D01*
X144516198Y-93325700D01*
X144354300Y-93163802D01*
X144166749Y-93032477D01*
X144166746Y-93032476D01*
X144166744Y-93032474D01*
X143959246Y-92935717D01*
X143959243Y-92935716D01*
X143769440Y-92884858D01*
X143738084Y-92876456D01*
X143509999Y-92856501D01*
X143281915Y-92876456D01*
X143060753Y-92935717D01*
X142853255Y-93032474D01*
X142665696Y-93163805D01*
X142503805Y-93325696D01*
X142503804Y-93325698D01*
X142503802Y-93325700D01*
X142420599Y-93444527D01*
X142372476Y-93513253D01*
X142352382Y-93556345D01*
X142306625Y-93608521D01*
X142240000Y-93627940D01*
X142173375Y-93608521D01*
X142127618Y-93556345D01*
X142126214Y-93553334D01*
X142107523Y-93513251D01*
X141976198Y-93325700D01*
X141814300Y-93163802D01*
X141626749Y-93032477D01*
X141626746Y-93032476D01*
X141626744Y-93032474D01*
X141419246Y-92935717D01*
X141419243Y-92935716D01*
X141229440Y-92884858D01*
X141198084Y-92876456D01*
X140969999Y-92856501D01*
X140741915Y-92876456D01*
X140520753Y-92935717D01*
X140313255Y-93032474D01*
X140125696Y-93163805D01*
X139963805Y-93325696D01*
X139963804Y-93325698D01*
X139963802Y-93325700D01*
X139880599Y-93444527D01*
X139832476Y-93513253D01*
X139812382Y-93556345D01*
X139766625Y-93608521D01*
X139700000Y-93627940D01*
X139633375Y-93608521D01*
X139587618Y-93556345D01*
X139586214Y-93553334D01*
X139567523Y-93513251D01*
X139436198Y-93325700D01*
X139274300Y-93163802D01*
X139086749Y-93032477D01*
X139086746Y-93032476D01*
X139086744Y-93032474D01*
X138879246Y-92935717D01*
X138879243Y-92935716D01*
X138689440Y-92884858D01*
X138658084Y-92876456D01*
X138429999Y-92856501D01*
X138201915Y-92876456D01*
X137980753Y-92935717D01*
X137773255Y-93032474D01*
X137585696Y-93163805D01*
X137423805Y-93325696D01*
X137423804Y-93325698D01*
X137423802Y-93325700D01*
X137340599Y-93444527D01*
X137292476Y-93513253D01*
X137272382Y-93556345D01*
X137226625Y-93608521D01*
X137160000Y-93627940D01*
X137093375Y-93608521D01*
X137047618Y-93556345D01*
X137046214Y-93553334D01*
X137027523Y-93513251D01*
X136896198Y-93325700D01*
X136734300Y-93163802D01*
X136546749Y-93032477D01*
X136546746Y-93032476D01*
X136546744Y-93032474D01*
X136339246Y-92935717D01*
X136339243Y-92935716D01*
X136149440Y-92884858D01*
X136118084Y-92876456D01*
X135889999Y-92856501D01*
X135661915Y-92876456D01*
X135440753Y-92935717D01*
X135233255Y-93032474D01*
X135045696Y-93163805D01*
X134883805Y-93325696D01*
X134883804Y-93325698D01*
X134883802Y-93325700D01*
X134752477Y-93513251D01*
X134752476Y-93513253D01*
X134752474Y-93513256D01*
X134727691Y-93566402D01*
X134681934Y-93618577D01*
X134615309Y-93637996D01*
X134548684Y-93618576D01*
X134502927Y-93566400D01*
X134480131Y-93517512D01*
X134429025Y-93444526D01*
X133703553Y-94169998D01*
X133703553Y-94169999D01*
X132996446Y-94169999D01*
X132996446Y-94169998D01*
X132270973Y-93444527D01*
X132219866Y-93517515D01*
X132192381Y-93576457D01*
X132146623Y-93628632D01*
X132079998Y-93648051D01*
X132013373Y-93628631D01*
X131967617Y-93576455D01*
X131940134Y-93517517D01*
X131889025Y-93444526D01*
X131163553Y-94169998D01*
X131163553Y-94169999D01*
X130456446Y-94169999D01*
X130456446Y-94169998D01*
X129730973Y-93444527D01*
X129679865Y-93517517D01*
X129657069Y-93566402D01*
X129611312Y-93618577D01*
X129544687Y-93637995D01*
X129478062Y-93618575D01*
X129432307Y-93566401D01*
X129407523Y-93513251D01*
X129276198Y-93325700D01*
X129114300Y-93163802D01*
X129010290Y-93090973D01*
X130084526Y-93090973D01*
X130810000Y-93816446D01*
X130810001Y-93816446D01*
X131535472Y-93090974D01*
X131535471Y-93090973D01*
X132624526Y-93090973D01*
X133350000Y-93816446D01*
X133350001Y-93816446D01*
X134075472Y-93090974D01*
X134075471Y-93090972D01*
X134002484Y-93039866D01*
X133796326Y-92943733D01*
X133576602Y-92884858D01*
X133350000Y-92865033D01*
X133123397Y-92884858D01*
X132903672Y-92943733D01*
X132697516Y-93039865D01*
X132624527Y-93090973D01*
X132624526Y-93090973D01*
X131535471Y-93090973D01*
X131535471Y-93090972D01*
X131462484Y-93039866D01*
X131256326Y-92943733D01*
X131036602Y-92884858D01*
X130810000Y-92865033D01*
X130583397Y-92884858D01*
X130363672Y-92943733D01*
X130157516Y-93039865D01*
X130084527Y-93090973D01*
X130084526Y-93090973D01*
X129010290Y-93090973D01*
X128926749Y-93032477D01*
X128926746Y-93032476D01*
X128926744Y-93032474D01*
X128719246Y-92935717D01*
X128719243Y-92935716D01*
X128529440Y-92884858D01*
X128498084Y-92876456D01*
X128269999Y-92856501D01*
X128041915Y-92876456D01*
X127820753Y-92935717D01*
X127613255Y-93032474D01*
X127425696Y-93163805D01*
X127263803Y-93325698D01*
X127258433Y-93333368D01*
X127213590Y-93372505D01*
X127155677Y-93386237D01*
X127098036Y-93371403D01*
X127053948Y-93331419D01*
X127033569Y-93275497D01*
X127031988Y-93260794D01*
X126980889Y-93123796D01*
X126893261Y-93006738D01*
X126776203Y-92919110D01*
X126639205Y-92868011D01*
X126608919Y-92864755D01*
X126578638Y-92861500D01*
X124881362Y-92861500D01*
X124854445Y-92864393D01*
X124820794Y-92868011D01*
X124683796Y-92919110D01*
X124566738Y-93006738D01*
X124479110Y-93123796D01*
X124428011Y-93260794D01*
X124421500Y-93321366D01*
X124421500Y-95018634D01*
X121920500Y-95018634D01*
X121920500Y-78929999D01*
X124416501Y-78929999D01*
X124436456Y-79158084D01*
X124495717Y-79379246D01*
X124592474Y-79586744D01*
X124592476Y-79586746D01*
X124592477Y-79586749D01*
X124723802Y-79774300D01*
X124885700Y-79936198D01*
X125073251Y-80067523D01*
X125280757Y-80164284D01*
X125501913Y-80223543D01*
X125730000Y-80243498D01*
X125958087Y-80223543D01*
X126179243Y-80164284D01*
X126386749Y-80067523D01*
X126470291Y-80009026D01*
X127544526Y-80009026D01*
X127617515Y-80060133D01*
X127823673Y-80156266D01*
X128043397Y-80215141D01*
X128270000Y-80234966D01*
X128496602Y-80215141D01*
X128716326Y-80156266D01*
X128922480Y-80060134D01*
X128995472Y-80009025D01*
X128270001Y-79283553D01*
X128270000Y-79283553D01*
X127544526Y-80009025D01*
X127544526Y-80009026D01*
X126470291Y-80009026D01*
X126574300Y-79936198D01*
X126736198Y-79774300D01*
X126867523Y-79586749D01*
X126892308Y-79533596D01*
X126938061Y-79481424D01*
X127004686Y-79462003D01*
X127071312Y-79481422D01*
X127117070Y-79533597D01*
X127139867Y-79582485D01*
X127190972Y-79655471D01*
X127190974Y-79655472D01*
X127916446Y-78930001D01*
X128623553Y-78930001D01*
X129349025Y-79655472D01*
X129400133Y-79582481D01*
X129422927Y-79533600D01*
X129468683Y-79481423D01*
X129535309Y-79462003D01*
X129601934Y-79481422D01*
X129647692Y-79533598D01*
X129672475Y-79586746D01*
X129672476Y-79586748D01*
X129672477Y-79586749D01*
X129803802Y-79774300D01*
X129965700Y-79936198D01*
X130153251Y-80067523D01*
X130360757Y-80164284D01*
X130581913Y-80223543D01*
X130810000Y-80243498D01*
X131038087Y-80223543D01*
X131259243Y-80164284D01*
X131466749Y-80067523D01*
X131654300Y-79936198D01*
X131816198Y-79774300D01*
X131947523Y-79586749D01*
X131967617Y-79543655D01*
X132013375Y-79491479D01*
X132080000Y-79472059D01*
X132146625Y-79491479D01*
X132192382Y-79543655D01*
X132212477Y-79586749D01*
X132343802Y-79774300D01*
X132505700Y-79936198D01*
X132693251Y-80067523D01*
X132900757Y-80164284D01*
X133121913Y-80223543D01*
X133350000Y-80243498D01*
X133578087Y-80223543D01*
X133799243Y-80164284D01*
X134006749Y-80067523D01*
X134194300Y-79936198D01*
X134356198Y-79774300D01*
X134487523Y-79586749D01*
X134507617Y-79543655D01*
X134553375Y-79491479D01*
X134620000Y-79472059D01*
X134686625Y-79491479D01*
X134732382Y-79543655D01*
X134752477Y-79586749D01*
X134883802Y-79774300D01*
X135045700Y-79936198D01*
X135233251Y-80067523D01*
X135440757Y-80164284D01*
X135661913Y-80223543D01*
X135890000Y-80243498D01*
X136118087Y-80223543D01*
X136339243Y-80164284D01*
X136546749Y-80067523D01*
X136734300Y-79936198D01*
X136896198Y-79774300D01*
X137027523Y-79586749D01*
X137047617Y-79543655D01*
X137093375Y-79491479D01*
X137160000Y-79472059D01*
X137226625Y-79491479D01*
X137272382Y-79543655D01*
X137292477Y-79586749D01*
X137423802Y-79774300D01*
X137585700Y-79936198D01*
X137773251Y-80067523D01*
X137980757Y-80164284D01*
X138201913Y-80223543D01*
X138430000Y-80243498D01*
X138658087Y-80223543D01*
X138879243Y-80164284D01*
X139086749Y-80067523D01*
X139274300Y-79936198D01*
X139436198Y-79774300D01*
X139567523Y-79586749D01*
X139587617Y-79543655D01*
X139633375Y-79491479D01*
X139700000Y-79472059D01*
X139766625Y-79491479D01*
X139812382Y-79543655D01*
X139832477Y-79586749D01*
X139963802Y-79774300D01*
X140125700Y-79936198D01*
X140313251Y-80067523D01*
X140520757Y-80164284D01*
X140741913Y-80223543D01*
X140970000Y-80243498D01*
X141198087Y-80223543D01*
X141419243Y-80164284D01*
X141626749Y-80067523D01*
X141814300Y-79936198D01*
X141976198Y-79774300D01*
X142107523Y-79586749D01*
X142127617Y-79543655D01*
X142173375Y-79491479D01*
X142240000Y-79472059D01*
X142306625Y-79491479D01*
X142352382Y-79543655D01*
X142372477Y-79586749D01*
X142503802Y-79774300D01*
X142665700Y-79936198D01*
X142853251Y-80067523D01*
X143060757Y-80164284D01*
X143281913Y-80223543D01*
X143510000Y-80243498D01*
X143738087Y-80223543D01*
X143959243Y-80164284D01*
X144166749Y-80067523D01*
X144354300Y-79936198D01*
X144516198Y-79774300D01*
X144647523Y-79586749D01*
X144667617Y-79543655D01*
X144713375Y-79491479D01*
X144780000Y-79472059D01*
X144846625Y-79491479D01*
X144892382Y-79543655D01*
X144912477Y-79586749D01*
X145043802Y-79774300D01*
X145205700Y-79936198D01*
X145393251Y-80067523D01*
X145600757Y-80164284D01*
X145821913Y-80223543D01*
X146050000Y-80243498D01*
X146278087Y-80223543D01*
X146499243Y-80164284D01*
X146706749Y-80067523D01*
X146894300Y-79936198D01*
X147056198Y-79774300D01*
X147187523Y-79586749D01*
X147207617Y-79543655D01*
X147253375Y-79491479D01*
X147320000Y-79472059D01*
X147386625Y-79491479D01*
X147432382Y-79543655D01*
X147452477Y-79586749D01*
X147583802Y-79774300D01*
X147745700Y-79936198D01*
X147933251Y-80067523D01*
X148140757Y-80164284D01*
X148361913Y-80223543D01*
X148590000Y-80243498D01*
X148818087Y-80223543D01*
X149039243Y-80164284D01*
X149246749Y-80067523D01*
X149434300Y-79936198D01*
X149596198Y-79774300D01*
X149727523Y-79586749D01*
X149747617Y-79543655D01*
X149793375Y-79491479D01*
X149860000Y-79472059D01*
X149926625Y-79491479D01*
X149972382Y-79543655D01*
X149992477Y-79586749D01*
X150123802Y-79774300D01*
X150285700Y-79936198D01*
X150473251Y-80067523D01*
X150680757Y-80164284D01*
X150901913Y-80223543D01*
X151130000Y-80243498D01*
X151358087Y-80223543D01*
X151579243Y-80164284D01*
X151786749Y-80067523D01*
X151974300Y-79936198D01*
X152136198Y-79774300D01*
X152267523Y-79586749D01*
X152287617Y-79543655D01*
X152333375Y-79491479D01*
X152400000Y-79472059D01*
X152466625Y-79491479D01*
X152512382Y-79543655D01*
X152532477Y-79586749D01*
X152663802Y-79774300D01*
X152825700Y-79936198D01*
X153013251Y-80067523D01*
X153220757Y-80164284D01*
X153441913Y-80223543D01*
X153670000Y-80243498D01*
X153898087Y-80223543D01*
X154119243Y-80164284D01*
X154326749Y-80067523D01*
X154514300Y-79936198D01*
X154646163Y-79804335D01*
X161419500Y-79804335D01*
X161460429Y-80049615D01*
X161541170Y-80284805D01*
X161541172Y-80284810D01*
X161659526Y-80503509D01*
X161659529Y-80503514D01*
X161795036Y-80677612D01*
X161812262Y-80699744D01*
X161995215Y-80868164D01*
X162203393Y-81004173D01*
X162431119Y-81104063D01*
X162672179Y-81165108D01*
X162746480Y-81171264D01*
X162857927Y-81180500D01*
X162857933Y-81180500D01*
X162982067Y-81180500D01*
X162982073Y-81180500D01*
X163083387Y-81172104D01*
X163167821Y-81165108D01*
X163408881Y-81104063D01*
X163636607Y-81004173D01*
X163844785Y-80868164D01*
X164027738Y-80699744D01*
X164180474Y-80503509D01*
X164298828Y-80284810D01*
X164379571Y-80049614D01*
X164420500Y-79804335D01*
X164420500Y-79555665D01*
X164379571Y-79310386D01*
X164298828Y-79075190D01*
X164180474Y-78856491D01*
X164180471Y-78856487D01*
X164180470Y-78856485D01*
X164078650Y-78725667D01*
X164027738Y-78660256D01*
X163844785Y-78491836D01*
X163636607Y-78355827D01*
X163636604Y-78355825D01*
X163458078Y-78277517D01*
X163408881Y-78255937D01*
X163167821Y-78194892D01*
X163167819Y-78194891D01*
X163167816Y-78194891D01*
X162982073Y-78179500D01*
X162982067Y-78179500D01*
X162857933Y-78179500D01*
X162857927Y-78179500D01*
X162672183Y-78194891D01*
X162672179Y-78194891D01*
X162672179Y-78194892D01*
X162431119Y-78255937D01*
X162431116Y-78255938D01*
X162431117Y-78255938D01*
X162203395Y-78355825D01*
X162138848Y-78397996D01*
X161995215Y-78491836D01*
X161995213Y-78491837D01*
X161995214Y-78491837D01*
X161812259Y-78660259D01*
X161659529Y-78856485D01*
X161541170Y-79075194D01*
X161460429Y-79310384D01*
X161419500Y-79555665D01*
X161419500Y-79804335D01*
X154646163Y-79804335D01*
X154676198Y-79774300D01*
X154807523Y-79586749D01*
X154904284Y-79379243D01*
X154963543Y-79158087D01*
X154983498Y-78930000D01*
X154963543Y-78701913D01*
X154904284Y-78480757D01*
X154807523Y-78273251D01*
X154676198Y-78085700D01*
X154514300Y-77923802D01*
X154326749Y-77792477D01*
X154326746Y-77792476D01*
X154326744Y-77792474D01*
X154119246Y-77695717D01*
X154119243Y-77695716D01*
X153929440Y-77644858D01*
X153898084Y-77636456D01*
X153669999Y-77616501D01*
X153441915Y-77636456D01*
X153220753Y-77695717D01*
X153013255Y-77792474D01*
X152825696Y-77923805D01*
X152663805Y-78085696D01*
X152663802Y-78085699D01*
X152663802Y-78085700D01*
X152544601Y-78255937D01*
X152532476Y-78273253D01*
X152512382Y-78316345D01*
X152466625Y-78368521D01*
X152400000Y-78387940D01*
X152333375Y-78368521D01*
X152287618Y-78316345D01*
X152286214Y-78313334D01*
X152267523Y-78273251D01*
X152136198Y-78085700D01*
X151974300Y-77923802D01*
X151786749Y-77792477D01*
X151786746Y-77792476D01*
X151786744Y-77792474D01*
X151579246Y-77695717D01*
X151579243Y-77695716D01*
X151389440Y-77644858D01*
X151358084Y-77636456D01*
X151129999Y-77616501D01*
X150901915Y-77636456D01*
X150680753Y-77695717D01*
X150473255Y-77792474D01*
X150285696Y-77923805D01*
X150123805Y-78085696D01*
X150123802Y-78085699D01*
X150123802Y-78085700D01*
X150004601Y-78255937D01*
X149992476Y-78273253D01*
X149972382Y-78316345D01*
X149926625Y-78368521D01*
X149860000Y-78387940D01*
X149793375Y-78368521D01*
X149747618Y-78316345D01*
X149746214Y-78313334D01*
X149727523Y-78273251D01*
X149596198Y-78085700D01*
X149434300Y-77923802D01*
X149246749Y-77792477D01*
X149246746Y-77792476D01*
X149246744Y-77792474D01*
X149039246Y-77695717D01*
X149039243Y-77695716D01*
X148849440Y-77644858D01*
X148818084Y-77636456D01*
X148589999Y-77616501D01*
X148361915Y-77636456D01*
X148140753Y-77695717D01*
X147933255Y-77792474D01*
X147745696Y-77923805D01*
X147583805Y-78085696D01*
X147583802Y-78085699D01*
X147583802Y-78085700D01*
X147464601Y-78255937D01*
X147452476Y-78273253D01*
X147432382Y-78316345D01*
X147386625Y-78368521D01*
X147320000Y-78387940D01*
X147253375Y-78368521D01*
X147207618Y-78316345D01*
X147206214Y-78313334D01*
X147187523Y-78273251D01*
X147056198Y-78085700D01*
X146894300Y-77923802D01*
X146706749Y-77792477D01*
X146706746Y-77792476D01*
X146706744Y-77792474D01*
X146499246Y-77695717D01*
X146499243Y-77695716D01*
X146309440Y-77644858D01*
X146278084Y-77636456D01*
X146049999Y-77616501D01*
X145821915Y-77636456D01*
X145600753Y-77695717D01*
X145393255Y-77792474D01*
X145205696Y-77923805D01*
X145043805Y-78085696D01*
X145043802Y-78085699D01*
X145043802Y-78085700D01*
X144924601Y-78255937D01*
X144912476Y-78273253D01*
X144892382Y-78316345D01*
X144846625Y-78368521D01*
X144780000Y-78387940D01*
X144713375Y-78368521D01*
X144667618Y-78316345D01*
X144666214Y-78313334D01*
X144647523Y-78273251D01*
X144516198Y-78085700D01*
X144354300Y-77923802D01*
X144166749Y-77792477D01*
X144166746Y-77792476D01*
X144166744Y-77792474D01*
X143959246Y-77695717D01*
X143959243Y-77695716D01*
X143769440Y-77644858D01*
X143738084Y-77636456D01*
X143509999Y-77616501D01*
X143281915Y-77636456D01*
X143060753Y-77695717D01*
X142853255Y-77792474D01*
X142665696Y-77923805D01*
X142503805Y-78085696D01*
X142503802Y-78085699D01*
X142503802Y-78085700D01*
X142384601Y-78255937D01*
X142372476Y-78273253D01*
X142352382Y-78316345D01*
X142306625Y-78368521D01*
X142240000Y-78387940D01*
X142173375Y-78368521D01*
X142127618Y-78316345D01*
X142126214Y-78313334D01*
X142107523Y-78273251D01*
X141976198Y-78085700D01*
X141814300Y-77923802D01*
X141626749Y-77792477D01*
X141626746Y-77792476D01*
X141626744Y-77792474D01*
X141419246Y-77695717D01*
X141419243Y-77695716D01*
X141229440Y-77644858D01*
X141198084Y-77636456D01*
X140969999Y-77616501D01*
X140741915Y-77636456D01*
X140520753Y-77695717D01*
X140313255Y-77792474D01*
X140125696Y-77923805D01*
X139963805Y-78085696D01*
X139963802Y-78085699D01*
X139963802Y-78085700D01*
X139844601Y-78255937D01*
X139832476Y-78273253D01*
X139812382Y-78316345D01*
X139766625Y-78368521D01*
X139700000Y-78387940D01*
X139633375Y-78368521D01*
X139587618Y-78316345D01*
X139586214Y-78313334D01*
X139567523Y-78273251D01*
X139436198Y-78085700D01*
X139274300Y-77923802D01*
X139086749Y-77792477D01*
X139086746Y-77792476D01*
X139086744Y-77792474D01*
X138879246Y-77695717D01*
X138879243Y-77695716D01*
X138689440Y-77644858D01*
X138658084Y-77636456D01*
X138429999Y-77616501D01*
X138201915Y-77636456D01*
X137980753Y-77695717D01*
X137773255Y-77792474D01*
X137585696Y-77923805D01*
X137423805Y-78085696D01*
X137423802Y-78085699D01*
X137423802Y-78085700D01*
X137304601Y-78255937D01*
X137292476Y-78273253D01*
X137272382Y-78316345D01*
X137226625Y-78368521D01*
X137160000Y-78387940D01*
X137093375Y-78368521D01*
X137047618Y-78316345D01*
X137046214Y-78313334D01*
X137027523Y-78273251D01*
X136896198Y-78085700D01*
X136734300Y-77923802D01*
X136546749Y-77792477D01*
X136546746Y-77792476D01*
X136546744Y-77792474D01*
X136339246Y-77695717D01*
X136339243Y-77695716D01*
X136149440Y-77644858D01*
X136118084Y-77636456D01*
X135889999Y-77616501D01*
X135661915Y-77636456D01*
X135440753Y-77695717D01*
X135233255Y-77792474D01*
X135045696Y-77923805D01*
X134883805Y-78085696D01*
X134883802Y-78085699D01*
X134883802Y-78085700D01*
X134764601Y-78255937D01*
X134752476Y-78273253D01*
X134732382Y-78316345D01*
X134686625Y-78368521D01*
X134620000Y-78387940D01*
X134553375Y-78368521D01*
X134507618Y-78316345D01*
X134506214Y-78313334D01*
X134487523Y-78273251D01*
X134356198Y-78085700D01*
X134194300Y-77923802D01*
X134006749Y-77792477D01*
X134006746Y-77792476D01*
X134006744Y-77792474D01*
X133799246Y-77695717D01*
X133799243Y-77695716D01*
X133609440Y-77644858D01*
X133578084Y-77636456D01*
X133349999Y-77616501D01*
X133121915Y-77636456D01*
X132900753Y-77695717D01*
X132693255Y-77792474D01*
X132505696Y-77923805D01*
X132343805Y-78085696D01*
X132343802Y-78085699D01*
X132343802Y-78085700D01*
X132224600Y-78255938D01*
X132212475Y-78273254D01*
X132192380Y-78316347D01*
X132146622Y-78368522D01*
X132079997Y-78387940D01*
X132013372Y-78368520D01*
X131967618Y-78316345D01*
X131947523Y-78273251D01*
X131816198Y-78085700D01*
X131654300Y-77923802D01*
X131466749Y-77792477D01*
X131466746Y-77792476D01*
X131466744Y-77792474D01*
X131259246Y-77695717D01*
X131259243Y-77695716D01*
X131069440Y-77644858D01*
X131038084Y-77636456D01*
X130809999Y-77616501D01*
X130581915Y-77636456D01*
X130360753Y-77695717D01*
X130153255Y-77792474D01*
X129965696Y-77923805D01*
X129803805Y-78085696D01*
X129803802Y-78085699D01*
X129803802Y-78085700D01*
X129672477Y-78273251D01*
X129672477Y-78273252D01*
X129672474Y-78273256D01*
X129647691Y-78326402D01*
X129601934Y-78378577D01*
X129535309Y-78397996D01*
X129468684Y-78378576D01*
X129422927Y-78326400D01*
X129400131Y-78277512D01*
X129349025Y-78204526D01*
X128623553Y-78930000D01*
X128623553Y-78930001D01*
X127916446Y-78930001D01*
X127916446Y-78930000D01*
X127190973Y-78204526D01*
X127190973Y-78204527D01*
X127139865Y-78277517D01*
X127117069Y-78326402D01*
X127071312Y-78378577D01*
X127004687Y-78397995D01*
X126938062Y-78378575D01*
X126892307Y-78326401D01*
X126867523Y-78273251D01*
X126736198Y-78085700D01*
X126574300Y-77923802D01*
X126470290Y-77850973D01*
X127544526Y-77850973D01*
X128269998Y-78576446D01*
X128269999Y-78576446D01*
X128995472Y-77850973D01*
X128995471Y-77850972D01*
X128922484Y-77799866D01*
X128716326Y-77703733D01*
X128496602Y-77644858D01*
X128269999Y-77625033D01*
X128043397Y-77644858D01*
X127823672Y-77703733D01*
X127617516Y-77799865D01*
X127544526Y-77850973D01*
X126470290Y-77850973D01*
X126386749Y-77792477D01*
X126386746Y-77792476D01*
X126386744Y-77792474D01*
X126179246Y-77695717D01*
X126179243Y-77695716D01*
X125989440Y-77644858D01*
X125958084Y-77636456D01*
X125729999Y-77616501D01*
X125501915Y-77636456D01*
X125280753Y-77695717D01*
X125073255Y-77792474D01*
X124885696Y-77923805D01*
X124723805Y-78085696D01*
X124592474Y-78273255D01*
X124495717Y-78480753D01*
X124436456Y-78701915D01*
X124416501Y-78929999D01*
X121920500Y-78929999D01*
X121920500Y-75804500D01*
X121937113Y-75742500D01*
X121982500Y-75697113D01*
X122044500Y-75680500D01*
X166795500Y-75680500D01*
X166857500Y-75697113D01*
G37*
G04 #@! TD.AperFunction*
M02*
