G04 #@! TF.GenerationSoftware,KiCad,Pcbnew,7.0.1*
G04 #@! TF.CreationDate,2023-04-10T15:17:22+02:00*
G04 #@! TF.ProjectId,LightingNodeProV2,4c696768-7469-46e6-974e-6f646550726f,rev?*
G04 #@! TF.SameCoordinates,Original*
G04 #@! TF.FileFunction,Legend,Top*
G04 #@! TF.FilePolarity,Positive*
%FSLAX46Y46*%
G04 Gerber Fmt 4.6, Leading zero omitted, Abs format (unit mm)*
G04 Created by KiCad (PCBNEW 7.0.1) date 2023-04-10 15:17:22*
%MOMM*%
%LPD*%
G01*
G04 APERTURE LIST*
%ADD10C,0.120000*%
%ADD11C,0.150000*%
%ADD12C,0.500000*%
%ADD13R,1.600000X1.600000*%
%ADD14C,1.600000*%
G04 APERTURE END LIST*
D10*
X133985000Y-82820000D02*
X133985000Y-86630000D01*
X133985000Y-86630000D02*
X142875000Y-86630000D01*
X133985000Y-82820000D02*
X142875000Y-82820000D01*
X142875000Y-86630000D02*
X142875000Y-82820000D01*
D11*
X157289523Y-87282619D02*
X156813333Y-87282619D01*
X156813333Y-87282619D02*
X156765714Y-87758809D01*
X156765714Y-87758809D02*
X156813333Y-87711190D01*
X156813333Y-87711190D02*
X156908571Y-87663571D01*
X156908571Y-87663571D02*
X157146666Y-87663571D01*
X157146666Y-87663571D02*
X157241904Y-87711190D01*
X157241904Y-87711190D02*
X157289523Y-87758809D01*
X157289523Y-87758809D02*
X157337142Y-87854047D01*
X157337142Y-87854047D02*
X157337142Y-88092142D01*
X157337142Y-88092142D02*
X157289523Y-88187380D01*
X157289523Y-88187380D02*
X157241904Y-88235000D01*
X157241904Y-88235000D02*
X157146666Y-88282619D01*
X157146666Y-88282619D02*
X156908571Y-88282619D01*
X156908571Y-88282619D02*
X156813333Y-88235000D01*
X156813333Y-88235000D02*
X156765714Y-88187380D01*
X157622857Y-87282619D02*
X157956190Y-88282619D01*
X157956190Y-88282619D02*
X158289523Y-87282619D01*
X157218095Y-90822619D02*
X157218095Y-89822619D01*
X157218095Y-89822619D02*
X157456190Y-89822619D01*
X157456190Y-89822619D02*
X157599047Y-89870238D01*
X157599047Y-89870238D02*
X157694285Y-89965476D01*
X157694285Y-89965476D02*
X157741904Y-90060714D01*
X157741904Y-90060714D02*
X157789523Y-90251190D01*
X157789523Y-90251190D02*
X157789523Y-90394047D01*
X157789523Y-90394047D02*
X157741904Y-90584523D01*
X157741904Y-90584523D02*
X157694285Y-90679761D01*
X157694285Y-90679761D02*
X157599047Y-90775000D01*
X157599047Y-90775000D02*
X157456190Y-90822619D01*
X157456190Y-90822619D02*
X157218095Y-90822619D01*
X157741904Y-105110238D02*
X157646666Y-105062619D01*
X157646666Y-105062619D02*
X157503809Y-105062619D01*
X157503809Y-105062619D02*
X157360952Y-105110238D01*
X157360952Y-105110238D02*
X157265714Y-105205476D01*
X157265714Y-105205476D02*
X157218095Y-105300714D01*
X157218095Y-105300714D02*
X157170476Y-105491190D01*
X157170476Y-105491190D02*
X157170476Y-105634047D01*
X157170476Y-105634047D02*
X157218095Y-105824523D01*
X157218095Y-105824523D02*
X157265714Y-105919761D01*
X157265714Y-105919761D02*
X157360952Y-106015000D01*
X157360952Y-106015000D02*
X157503809Y-106062619D01*
X157503809Y-106062619D02*
X157599047Y-106062619D01*
X157599047Y-106062619D02*
X157741904Y-106015000D01*
X157741904Y-106015000D02*
X157789523Y-105967380D01*
X157789523Y-105967380D02*
X157789523Y-105634047D01*
X157789523Y-105634047D02*
X157599047Y-105634047D01*
X157218095Y-103522619D02*
X157218095Y-102522619D01*
X157218095Y-102522619D02*
X157456190Y-102522619D01*
X157456190Y-102522619D02*
X157599047Y-102570238D01*
X157599047Y-102570238D02*
X157694285Y-102665476D01*
X157694285Y-102665476D02*
X157741904Y-102760714D01*
X157741904Y-102760714D02*
X157789523Y-102951190D01*
X157789523Y-102951190D02*
X157789523Y-103094047D01*
X157789523Y-103094047D02*
X157741904Y-103284523D01*
X157741904Y-103284523D02*
X157694285Y-103379761D01*
X157694285Y-103379761D02*
X157599047Y-103475000D01*
X157599047Y-103475000D02*
X157456190Y-103522619D01*
X157456190Y-103522619D02*
X157218095Y-103522619D01*
X128675238Y-81932619D02*
X128675238Y-80932619D01*
X128675238Y-80932619D02*
X129056190Y-80932619D01*
X129056190Y-80932619D02*
X129151428Y-80980238D01*
X129151428Y-80980238D02*
X129199047Y-81027857D01*
X129199047Y-81027857D02*
X129246666Y-81123095D01*
X129246666Y-81123095D02*
X129246666Y-81265952D01*
X129246666Y-81265952D02*
X129199047Y-81361190D01*
X129199047Y-81361190D02*
X129151428Y-81408809D01*
X129151428Y-81408809D02*
X129056190Y-81456428D01*
X129056190Y-81456428D02*
X128675238Y-81456428D01*
X129675238Y-81932619D02*
X129675238Y-81265952D01*
X129675238Y-81456428D02*
X129722857Y-81361190D01*
X129722857Y-81361190D02*
X129770476Y-81313571D01*
X129770476Y-81313571D02*
X129865714Y-81265952D01*
X129865714Y-81265952D02*
X129960952Y-81265952D01*
X130437143Y-81932619D02*
X130341905Y-81885000D01*
X130341905Y-81885000D02*
X130294286Y-81837380D01*
X130294286Y-81837380D02*
X130246667Y-81742142D01*
X130246667Y-81742142D02*
X130246667Y-81456428D01*
X130246667Y-81456428D02*
X130294286Y-81361190D01*
X130294286Y-81361190D02*
X130341905Y-81313571D01*
X130341905Y-81313571D02*
X130437143Y-81265952D01*
X130437143Y-81265952D02*
X130580000Y-81265952D01*
X130580000Y-81265952D02*
X130675238Y-81313571D01*
X130675238Y-81313571D02*
X130722857Y-81361190D01*
X130722857Y-81361190D02*
X130770476Y-81456428D01*
X130770476Y-81456428D02*
X130770476Y-81742142D01*
X130770476Y-81742142D02*
X130722857Y-81837380D01*
X130722857Y-81837380D02*
X130675238Y-81885000D01*
X130675238Y-81885000D02*
X130580000Y-81932619D01*
X130580000Y-81932619D02*
X130437143Y-81932619D01*
X131960953Y-81932619D02*
X131960953Y-80932619D01*
X131960953Y-80932619D02*
X132294286Y-81646904D01*
X132294286Y-81646904D02*
X132627619Y-80932619D01*
X132627619Y-80932619D02*
X132627619Y-81932619D01*
X133103810Y-81932619D02*
X133103810Y-81265952D01*
X133103810Y-80932619D02*
X133056191Y-80980238D01*
X133056191Y-80980238D02*
X133103810Y-81027857D01*
X133103810Y-81027857D02*
X133151429Y-80980238D01*
X133151429Y-80980238D02*
X133103810Y-80932619D01*
X133103810Y-80932619D02*
X133103810Y-81027857D01*
X134008571Y-81885000D02*
X133913333Y-81932619D01*
X133913333Y-81932619D02*
X133722857Y-81932619D01*
X133722857Y-81932619D02*
X133627619Y-81885000D01*
X133627619Y-81885000D02*
X133580000Y-81837380D01*
X133580000Y-81837380D02*
X133532381Y-81742142D01*
X133532381Y-81742142D02*
X133532381Y-81456428D01*
X133532381Y-81456428D02*
X133580000Y-81361190D01*
X133580000Y-81361190D02*
X133627619Y-81313571D01*
X133627619Y-81313571D02*
X133722857Y-81265952D01*
X133722857Y-81265952D02*
X133913333Y-81265952D01*
X133913333Y-81265952D02*
X134008571Y-81313571D01*
X134437143Y-81932619D02*
X134437143Y-81265952D01*
X134437143Y-81456428D02*
X134484762Y-81361190D01*
X134484762Y-81361190D02*
X134532381Y-81313571D01*
X134532381Y-81313571D02*
X134627619Y-81265952D01*
X134627619Y-81265952D02*
X134722857Y-81265952D01*
X135199048Y-81932619D02*
X135103810Y-81885000D01*
X135103810Y-81885000D02*
X135056191Y-81837380D01*
X135056191Y-81837380D02*
X135008572Y-81742142D01*
X135008572Y-81742142D02*
X135008572Y-81456428D01*
X135008572Y-81456428D02*
X135056191Y-81361190D01*
X135056191Y-81361190D02*
X135103810Y-81313571D01*
X135103810Y-81313571D02*
X135199048Y-81265952D01*
X135199048Y-81265952D02*
X135341905Y-81265952D01*
X135341905Y-81265952D02*
X135437143Y-81313571D01*
X135437143Y-81313571D02*
X135484762Y-81361190D01*
X135484762Y-81361190D02*
X135532381Y-81456428D01*
X135532381Y-81456428D02*
X135532381Y-81742142D01*
X135532381Y-81742142D02*
X135484762Y-81837380D01*
X135484762Y-81837380D02*
X135437143Y-81885000D01*
X135437143Y-81885000D02*
X135341905Y-81932619D01*
X135341905Y-81932619D02*
X135199048Y-81932619D01*
X157741904Y-92410238D02*
X157646666Y-92362619D01*
X157646666Y-92362619D02*
X157503809Y-92362619D01*
X157503809Y-92362619D02*
X157360952Y-92410238D01*
X157360952Y-92410238D02*
X157265714Y-92505476D01*
X157265714Y-92505476D02*
X157218095Y-92600714D01*
X157218095Y-92600714D02*
X157170476Y-92791190D01*
X157170476Y-92791190D02*
X157170476Y-92934047D01*
X157170476Y-92934047D02*
X157218095Y-93124523D01*
X157218095Y-93124523D02*
X157265714Y-93219761D01*
X157265714Y-93219761D02*
X157360952Y-93315000D01*
X157360952Y-93315000D02*
X157503809Y-93362619D01*
X157503809Y-93362619D02*
X157599047Y-93362619D01*
X157599047Y-93362619D02*
X157741904Y-93315000D01*
X157741904Y-93315000D02*
X157789523Y-93267380D01*
X157789523Y-93267380D02*
X157789523Y-92934047D01*
X157789523Y-92934047D02*
X157599047Y-92934047D01*
X157289523Y-99982619D02*
X156813333Y-99982619D01*
X156813333Y-99982619D02*
X156765714Y-100458809D01*
X156765714Y-100458809D02*
X156813333Y-100411190D01*
X156813333Y-100411190D02*
X156908571Y-100363571D01*
X156908571Y-100363571D02*
X157146666Y-100363571D01*
X157146666Y-100363571D02*
X157241904Y-100411190D01*
X157241904Y-100411190D02*
X157289523Y-100458809D01*
X157289523Y-100458809D02*
X157337142Y-100554047D01*
X157337142Y-100554047D02*
X157337142Y-100792142D01*
X157337142Y-100792142D02*
X157289523Y-100887380D01*
X157289523Y-100887380D02*
X157241904Y-100935000D01*
X157241904Y-100935000D02*
X157146666Y-100982619D01*
X157146666Y-100982619D02*
X156908571Y-100982619D01*
X156908571Y-100982619D02*
X156813333Y-100935000D01*
X156813333Y-100935000D02*
X156765714Y-100887380D01*
X157622857Y-99982619D02*
X157956190Y-100982619D01*
X157956190Y-100982619D02*
X158289523Y-99982619D01*
X132367499Y-88997619D02*
X131891308Y-88997619D01*
X131891308Y-88997619D02*
X132016308Y-87997619D01*
X132694879Y-88997619D02*
X132778213Y-88330952D01*
X132819879Y-87997619D02*
X132766308Y-88045238D01*
X132766308Y-88045238D02*
X132807975Y-88092857D01*
X132807975Y-88092857D02*
X132861546Y-88045238D01*
X132861546Y-88045238D02*
X132819879Y-87997619D01*
X132819879Y-87997619D02*
X132807975Y-88092857D01*
X133677022Y-88330952D02*
X133575832Y-89140476D01*
X133575832Y-89140476D02*
X133516308Y-89235714D01*
X133516308Y-89235714D02*
X133462736Y-89283333D01*
X133462736Y-89283333D02*
X133361546Y-89330952D01*
X133361546Y-89330952D02*
X133218689Y-89330952D01*
X133218689Y-89330952D02*
X133129403Y-89283333D01*
X133599641Y-88950000D02*
X133498451Y-88997619D01*
X133498451Y-88997619D02*
X133307975Y-88997619D01*
X133307975Y-88997619D02*
X133218689Y-88950000D01*
X133218689Y-88950000D02*
X133177022Y-88902380D01*
X133177022Y-88902380D02*
X133141308Y-88807142D01*
X133141308Y-88807142D02*
X133177022Y-88521428D01*
X133177022Y-88521428D02*
X133236546Y-88426190D01*
X133236546Y-88426190D02*
X133290117Y-88378571D01*
X133290117Y-88378571D02*
X133391308Y-88330952D01*
X133391308Y-88330952D02*
X133581784Y-88330952D01*
X133581784Y-88330952D02*
X133671070Y-88378571D01*
X134022260Y-88997619D02*
X134147260Y-87997619D01*
X134450832Y-88997619D02*
X134516308Y-88473809D01*
X134516308Y-88473809D02*
X134480594Y-88378571D01*
X134480594Y-88378571D02*
X134391308Y-88330952D01*
X134391308Y-88330952D02*
X134248451Y-88330952D01*
X134248451Y-88330952D02*
X134147260Y-88378571D01*
X134147260Y-88378571D02*
X134093689Y-88426190D01*
X134861547Y-88330952D02*
X135242499Y-88330952D01*
X135046070Y-87997619D02*
X134938928Y-88854761D01*
X134938928Y-88854761D02*
X134974642Y-88950000D01*
X134974642Y-88950000D02*
X135063928Y-88997619D01*
X135063928Y-88997619D02*
X135159166Y-88997619D01*
X135486546Y-88997619D02*
X135569880Y-88330952D01*
X135611546Y-87997619D02*
X135557975Y-88045238D01*
X135557975Y-88045238D02*
X135599642Y-88092857D01*
X135599642Y-88092857D02*
X135653213Y-88045238D01*
X135653213Y-88045238D02*
X135611546Y-87997619D01*
X135611546Y-87997619D02*
X135599642Y-88092857D01*
X136040118Y-88330952D02*
X135956784Y-88997619D01*
X136028213Y-88426190D02*
X136081784Y-88378571D01*
X136081784Y-88378571D02*
X136182975Y-88330952D01*
X136182975Y-88330952D02*
X136325832Y-88330952D01*
X136325832Y-88330952D02*
X136415118Y-88378571D01*
X136415118Y-88378571D02*
X136450832Y-88473809D01*
X136450832Y-88473809D02*
X136385356Y-88997619D01*
X137367499Y-88330952D02*
X137266309Y-89140476D01*
X137266309Y-89140476D02*
X137206785Y-89235714D01*
X137206785Y-89235714D02*
X137153213Y-89283333D01*
X137153213Y-89283333D02*
X137052023Y-89330952D01*
X137052023Y-89330952D02*
X136909166Y-89330952D01*
X136909166Y-89330952D02*
X136819880Y-89283333D01*
X137290118Y-88950000D02*
X137188928Y-88997619D01*
X137188928Y-88997619D02*
X136998452Y-88997619D01*
X136998452Y-88997619D02*
X136909166Y-88950000D01*
X136909166Y-88950000D02*
X136867499Y-88902380D01*
X136867499Y-88902380D02*
X136831785Y-88807142D01*
X136831785Y-88807142D02*
X136867499Y-88521428D01*
X136867499Y-88521428D02*
X136927023Y-88426190D01*
X136927023Y-88426190D02*
X136980594Y-88378571D01*
X136980594Y-88378571D02*
X137081785Y-88330952D01*
X137081785Y-88330952D02*
X137272261Y-88330952D01*
X137272261Y-88330952D02*
X137361547Y-88378571D01*
X138474642Y-88997619D02*
X138599642Y-87997619D01*
X138599642Y-87997619D02*
X139046071Y-88997619D01*
X139046071Y-88997619D02*
X139171071Y-87997619D01*
X139659167Y-88997619D02*
X139569881Y-88950000D01*
X139569881Y-88950000D02*
X139528214Y-88902380D01*
X139528214Y-88902380D02*
X139492500Y-88807142D01*
X139492500Y-88807142D02*
X139528214Y-88521428D01*
X139528214Y-88521428D02*
X139587738Y-88426190D01*
X139587738Y-88426190D02*
X139641309Y-88378571D01*
X139641309Y-88378571D02*
X139742500Y-88330952D01*
X139742500Y-88330952D02*
X139885357Y-88330952D01*
X139885357Y-88330952D02*
X139974643Y-88378571D01*
X139974643Y-88378571D02*
X140016309Y-88426190D01*
X140016309Y-88426190D02*
X140052024Y-88521428D01*
X140052024Y-88521428D02*
X140016309Y-88807142D01*
X140016309Y-88807142D02*
X139956786Y-88902380D01*
X139956786Y-88902380D02*
X139903214Y-88950000D01*
X139903214Y-88950000D02*
X139802024Y-88997619D01*
X139802024Y-88997619D02*
X139659167Y-88997619D01*
X140843691Y-88997619D02*
X140968691Y-87997619D01*
X140849643Y-88950000D02*
X140748453Y-88997619D01*
X140748453Y-88997619D02*
X140557977Y-88997619D01*
X140557977Y-88997619D02*
X140468691Y-88950000D01*
X140468691Y-88950000D02*
X140427024Y-88902380D01*
X140427024Y-88902380D02*
X140391310Y-88807142D01*
X140391310Y-88807142D02*
X140427024Y-88521428D01*
X140427024Y-88521428D02*
X140486548Y-88426190D01*
X140486548Y-88426190D02*
X140540119Y-88378571D01*
X140540119Y-88378571D02*
X140641310Y-88330952D01*
X140641310Y-88330952D02*
X140831786Y-88330952D01*
X140831786Y-88330952D02*
X140921072Y-88378571D01*
X141700834Y-88950000D02*
X141599644Y-88997619D01*
X141599644Y-88997619D02*
X141409167Y-88997619D01*
X141409167Y-88997619D02*
X141319882Y-88950000D01*
X141319882Y-88950000D02*
X141284167Y-88854761D01*
X141284167Y-88854761D02*
X141331787Y-88473809D01*
X141331787Y-88473809D02*
X141391310Y-88378571D01*
X141391310Y-88378571D02*
X141492501Y-88330952D01*
X141492501Y-88330952D02*
X141682977Y-88330952D01*
X141682977Y-88330952D02*
X141772263Y-88378571D01*
X141772263Y-88378571D02*
X141807977Y-88473809D01*
X141807977Y-88473809D02*
X141796072Y-88569047D01*
X141796072Y-88569047D02*
X141307977Y-88664285D01*
X142927024Y-88997619D02*
X143052024Y-87997619D01*
X143052024Y-87997619D02*
X143432977Y-87997619D01*
X143432977Y-87997619D02*
X143522262Y-88045238D01*
X143522262Y-88045238D02*
X143563929Y-88092857D01*
X143563929Y-88092857D02*
X143599643Y-88188095D01*
X143599643Y-88188095D02*
X143581786Y-88330952D01*
X143581786Y-88330952D02*
X143522262Y-88426190D01*
X143522262Y-88426190D02*
X143468691Y-88473809D01*
X143468691Y-88473809D02*
X143367501Y-88521428D01*
X143367501Y-88521428D02*
X142986548Y-88521428D01*
X143921072Y-88997619D02*
X144004406Y-88330952D01*
X143980596Y-88521428D02*
X144040120Y-88426190D01*
X144040120Y-88426190D02*
X144093691Y-88378571D01*
X144093691Y-88378571D02*
X144194882Y-88330952D01*
X144194882Y-88330952D02*
X144290120Y-88330952D01*
X144677025Y-88997619D02*
X144587739Y-88950000D01*
X144587739Y-88950000D02*
X144546072Y-88902380D01*
X144546072Y-88902380D02*
X144510358Y-88807142D01*
X144510358Y-88807142D02*
X144546072Y-88521428D01*
X144546072Y-88521428D02*
X144605596Y-88426190D01*
X144605596Y-88426190D02*
X144659167Y-88378571D01*
X144659167Y-88378571D02*
X144760358Y-88330952D01*
X144760358Y-88330952D02*
X144903215Y-88330952D01*
X144903215Y-88330952D02*
X144992501Y-88378571D01*
X144992501Y-88378571D02*
X145034167Y-88426190D01*
X145034167Y-88426190D02*
X145069882Y-88521428D01*
X145069882Y-88521428D02*
X145034167Y-88807142D01*
X145034167Y-88807142D02*
X144974644Y-88902380D01*
X144974644Y-88902380D02*
X144921072Y-88950000D01*
X144921072Y-88950000D02*
X144819882Y-88997619D01*
X144819882Y-88997619D02*
X144677025Y-88997619D01*
D12*
X135001429Y-84602619D02*
X135668095Y-84602619D01*
X135822857Y-85650238D02*
X134870476Y-85650238D01*
X134870476Y-85650238D02*
X135120476Y-83650238D01*
X135120476Y-83650238D02*
X136072857Y-83650238D01*
X136477619Y-85650238D02*
X137691905Y-84316904D01*
X136644286Y-84316904D02*
X137525238Y-85650238D01*
X138191905Y-85555000D02*
X138370476Y-85650238D01*
X138370476Y-85650238D02*
X138751429Y-85650238D01*
X138751429Y-85650238D02*
X138953810Y-85555000D01*
X138953810Y-85555000D02*
X139072857Y-85364523D01*
X139072857Y-85364523D02*
X139084762Y-85269285D01*
X139084762Y-85269285D02*
X139013333Y-85078809D01*
X139013333Y-85078809D02*
X138834762Y-84983571D01*
X138834762Y-84983571D02*
X138549048Y-84983571D01*
X138549048Y-84983571D02*
X138370476Y-84888333D01*
X138370476Y-84888333D02*
X138299048Y-84697857D01*
X138299048Y-84697857D02*
X138310953Y-84602619D01*
X138310953Y-84602619D02*
X138430000Y-84412142D01*
X138430000Y-84412142D02*
X138632381Y-84316904D01*
X138632381Y-84316904D02*
X138918095Y-84316904D01*
X138918095Y-84316904D02*
X139096667Y-84412142D01*
X139858572Y-84316904D02*
X140168096Y-85650238D01*
X140810953Y-84316904D02*
X140168096Y-85650238D01*
X140168096Y-85650238D02*
X139918096Y-86126428D01*
X139918096Y-86126428D02*
X139810953Y-86221666D01*
X139810953Y-86221666D02*
X139608572Y-86316904D01*
X141227619Y-85555000D02*
X141406190Y-85650238D01*
X141406190Y-85650238D02*
X141787143Y-85650238D01*
X141787143Y-85650238D02*
X141989524Y-85555000D01*
X141989524Y-85555000D02*
X142108571Y-85364523D01*
X142108571Y-85364523D02*
X142120476Y-85269285D01*
X142120476Y-85269285D02*
X142049047Y-85078809D01*
X142049047Y-85078809D02*
X141870476Y-84983571D01*
X141870476Y-84983571D02*
X141584762Y-84983571D01*
X141584762Y-84983571D02*
X141406190Y-84888333D01*
X141406190Y-84888333D02*
X141334762Y-84697857D01*
X141334762Y-84697857D02*
X141346667Y-84602619D01*
X141346667Y-84602619D02*
X141465714Y-84412142D01*
X141465714Y-84412142D02*
X141668095Y-84316904D01*
X141668095Y-84316904D02*
X141953809Y-84316904D01*
X141953809Y-84316904D02*
X142132381Y-84412142D01*
D11*
X164071666Y-85012619D02*
X164071666Y-85726904D01*
X164071666Y-85726904D02*
X164024047Y-85869761D01*
X164024047Y-85869761D02*
X163928809Y-85965000D01*
X163928809Y-85965000D02*
X163785952Y-86012619D01*
X163785952Y-86012619D02*
X163690714Y-86012619D01*
X164452619Y-85012619D02*
X165071666Y-85012619D01*
X165071666Y-85012619D02*
X164738333Y-85393571D01*
X164738333Y-85393571D02*
X164881190Y-85393571D01*
X164881190Y-85393571D02*
X164976428Y-85441190D01*
X164976428Y-85441190D02*
X165024047Y-85488809D01*
X165024047Y-85488809D02*
X165071666Y-85584047D01*
X165071666Y-85584047D02*
X165071666Y-85822142D01*
X165071666Y-85822142D02*
X165024047Y-85917380D01*
X165024047Y-85917380D02*
X164976428Y-85965000D01*
X164976428Y-85965000D02*
X164881190Y-86012619D01*
X164881190Y-86012619D02*
X164595476Y-86012619D01*
X164595476Y-86012619D02*
X164500238Y-85965000D01*
X164500238Y-85965000D02*
X164452619Y-85917380D01*
X124968095Y-80932619D02*
X124968095Y-81742142D01*
X124968095Y-81742142D02*
X125015714Y-81837380D01*
X125015714Y-81837380D02*
X125063333Y-81885000D01*
X125063333Y-81885000D02*
X125158571Y-81932619D01*
X125158571Y-81932619D02*
X125349047Y-81932619D01*
X125349047Y-81932619D02*
X125444285Y-81885000D01*
X125444285Y-81885000D02*
X125491904Y-81837380D01*
X125491904Y-81837380D02*
X125539523Y-81742142D01*
X125539523Y-81742142D02*
X125539523Y-80932619D01*
X126539523Y-81932619D02*
X125968095Y-81932619D01*
X126253809Y-81932619D02*
X126253809Y-80932619D01*
X126253809Y-80932619D02*
X126158571Y-81075476D01*
X126158571Y-81075476D02*
X126063333Y-81170714D01*
X126063333Y-81170714D02*
X125968095Y-81218333D01*
X131117619Y-102673333D02*
X131831904Y-102673333D01*
X131831904Y-102673333D02*
X131974761Y-102720952D01*
X131974761Y-102720952D02*
X132070000Y-102816190D01*
X132070000Y-102816190D02*
X132117619Y-102959047D01*
X132117619Y-102959047D02*
X132117619Y-103054285D01*
X132117619Y-101673333D02*
X132117619Y-102244761D01*
X132117619Y-101959047D02*
X131117619Y-101959047D01*
X131117619Y-101959047D02*
X131260476Y-102054285D01*
X131260476Y-102054285D02*
X131355714Y-102149523D01*
X131355714Y-102149523D02*
X131403333Y-102244761D01*
X164071666Y-97712619D02*
X164071666Y-98426904D01*
X164071666Y-98426904D02*
X164024047Y-98569761D01*
X164024047Y-98569761D02*
X163928809Y-98665000D01*
X163928809Y-98665000D02*
X163785952Y-98712619D01*
X163785952Y-98712619D02*
X163690714Y-98712619D01*
X164500238Y-97807857D02*
X164547857Y-97760238D01*
X164547857Y-97760238D02*
X164643095Y-97712619D01*
X164643095Y-97712619D02*
X164881190Y-97712619D01*
X164881190Y-97712619D02*
X164976428Y-97760238D01*
X164976428Y-97760238D02*
X165024047Y-97807857D01*
X165024047Y-97807857D02*
X165071666Y-97903095D01*
X165071666Y-97903095D02*
X165071666Y-97998333D01*
X165071666Y-97998333D02*
X165024047Y-98141190D01*
X165024047Y-98141190D02*
X164452619Y-98712619D01*
X164452619Y-98712619D02*
X165071666Y-98712619D01*
D10*
X158750000Y-86550000D02*
X160020000Y-86550000D01*
X158750000Y-87820000D02*
X158750000Y-86550000D01*
X161062929Y-89980000D02*
X161460000Y-89980000D01*
X161062929Y-90740000D02*
X161460000Y-90740000D01*
X161062929Y-92520000D02*
X161460000Y-92520000D01*
X161062929Y-93280000D02*
X161460000Y-93280000D01*
X161130000Y-87440000D02*
X161460000Y-87440000D01*
X161130000Y-88200000D02*
X161460000Y-88200000D01*
X161460000Y-86490000D02*
X161460000Y-94230000D01*
X161460000Y-89090000D02*
X164120000Y-89090000D01*
X161460000Y-91630000D02*
X164120000Y-91630000D01*
X161460000Y-94230000D02*
X164120000Y-94230000D01*
X164120000Y-86490000D02*
X161460000Y-86490000D01*
X164120000Y-94230000D02*
X164120000Y-86490000D01*
D11*
X121920000Y-82740000D02*
X124460000Y-82740000D01*
X121920000Y-90360000D02*
X121920000Y-82740000D01*
X124460000Y-77660000D02*
X154940000Y-77660000D01*
X124460000Y-82740000D02*
X124460000Y-77660000D01*
X124460000Y-90360000D02*
X121920000Y-90360000D01*
X124460000Y-95440000D02*
X124460000Y-90360000D01*
X124460000Y-95440000D02*
X154940000Y-95440000D01*
X154940000Y-77660000D02*
X154940000Y-95440000D01*
D10*
X158750000Y-99250000D02*
X160020000Y-99250000D01*
X158750000Y-100520000D02*
X158750000Y-99250000D01*
X161062929Y-102680000D02*
X161460000Y-102680000D01*
X161062929Y-103440000D02*
X161460000Y-103440000D01*
X161062929Y-105220000D02*
X161460000Y-105220000D01*
X161062929Y-105980000D02*
X161460000Y-105980000D01*
X161130000Y-100140000D02*
X161460000Y-100140000D01*
X161130000Y-100900000D02*
X161460000Y-100900000D01*
X161460000Y-99190000D02*
X161460000Y-106930000D01*
X161460000Y-101790000D02*
X164120000Y-101790000D01*
X161460000Y-104330000D02*
X164120000Y-104330000D01*
X161460000Y-106930000D02*
X164120000Y-106930000D01*
X164120000Y-99190000D02*
X161460000Y-99190000D01*
X164120000Y-106930000D02*
X164120000Y-99190000D01*
D13*
X125730000Y-94170000D03*
D14*
X128270000Y-94170000D03*
X130810000Y-94170000D03*
X133350000Y-94170000D03*
X135890000Y-94170000D03*
X138430000Y-94170000D03*
X140970000Y-94170000D03*
X143510000Y-94170000D03*
X146050000Y-94170000D03*
X148590000Y-94170000D03*
X151130000Y-94170000D03*
X153670000Y-94170000D03*
X153670000Y-78930000D03*
X151130000Y-78930000D03*
X148590000Y-78930000D03*
X146050000Y-78930000D03*
X143510000Y-78930000D03*
X140970000Y-78930000D03*
X138430000Y-78930000D03*
X135890000Y-78930000D03*
X133350000Y-78930000D03*
X130810000Y-78930000D03*
X128270000Y-78930000D03*
X125730000Y-78930000D03*
M02*
