%TF.GenerationSoftware,KiCad,Pcbnew,7.0.1*%
%TF.CreationDate,2023-04-10T14:55:25+02:00*%
%TF.ProjectId,LightingNodeProV2,4c696768-7469-46e6-974e-6f646550726f,rev?*%
%TF.SameCoordinates,Original*%
%TF.FileFunction,Drillmap*%
%TF.FilePolarity,Positive*%
%FSLAX45Y45*%
G04 Gerber Fmt 4.5, Leading zero omitted, Abs format (unit mm)*
G04 Created by KiCad (PCBNEW 7.0.1) date 2023-04-10 14:55:25*
%MOMM*%
%LPD*%
G01*
G04 APERTURE LIST*
%ADD10C,0.050000*%
%ADD11C,0.200000*%
%ADD12C,0.055000*%
%ADD13C,0.100000*%
%ADD14C,0.110000*%
%ADD15C,0.170000*%
G04 APERTURE END LIST*
D10*
X16692000Y-11068000D02*
X16692000Y-7568000D01*
X16692000Y-11068000D02*
X12192000Y-11068000D01*
X16692000Y-7568000D02*
X12192000Y-7568000D01*
X12192000Y-11068000D02*
X12192000Y-7568000D01*
D11*
D12*
X13307500Y-10206500D02*
X13362500Y-10261500D01*
X13362500Y-10206500D02*
X13307500Y-10261500D01*
X13434500Y-10206500D02*
X13489500Y-10261500D01*
X13489500Y-10206500D02*
X13434500Y-10261500D01*
X13561500Y-10206500D02*
X13616500Y-10261500D01*
X13616500Y-10206500D02*
X13561500Y-10261500D01*
X13688500Y-10206500D02*
X13743500Y-10261500D01*
X13743500Y-10206500D02*
X13688500Y-10261500D01*
X13815500Y-10206500D02*
X13870500Y-10261500D01*
X13870500Y-10206500D02*
X13815500Y-10261500D01*
X13942500Y-10206500D02*
X13997500Y-10261500D01*
X13997500Y-10206500D02*
X13942500Y-10261500D01*
X14069500Y-10206500D02*
X14124500Y-10261500D01*
X14124500Y-10206500D02*
X14069500Y-10261500D01*
X14196500Y-10206500D02*
X14251500Y-10261500D01*
X14251500Y-10206500D02*
X14196500Y-10261500D01*
X14323500Y-10206500D02*
X14378500Y-10261500D01*
X14378500Y-10206500D02*
X14323500Y-10261500D01*
X14450500Y-10206500D02*
X14505500Y-10261500D01*
X14505500Y-10206500D02*
X14450500Y-10261500D01*
X14577500Y-10206500D02*
X14632500Y-10261500D01*
X14632500Y-10206500D02*
X14577500Y-10261500D01*
X14704500Y-10206500D02*
X14759500Y-10261500D01*
X14759500Y-10206500D02*
X14704500Y-10261500D01*
X14831500Y-10206500D02*
X14886500Y-10261500D01*
X14886500Y-10206500D02*
X14831500Y-10261500D01*
X14958500Y-10206500D02*
X15013500Y-10261500D01*
X15013500Y-10206500D02*
X14958500Y-10261500D01*
X15085500Y-10206500D02*
X15140500Y-10261500D01*
X15140500Y-10206500D02*
X15085500Y-10261500D01*
D13*
X16052000Y-8782000D02*
G75*
G03*
X16052000Y-8782000I-50000J0D01*
G01*
X16052000Y-9036000D02*
G75*
G03*
X16052000Y-9036000I-50000J0D01*
G01*
X16052000Y-9290000D02*
G75*
G03*
X16052000Y-9290000I-50000J0D01*
G01*
X16052000Y-10052000D02*
G75*
G03*
X16052000Y-10052000I-50000J0D01*
G01*
X16052000Y-10306000D02*
G75*
G03*
X16052000Y-10306000I-50000J0D01*
G01*
X16052000Y-10560000D02*
G75*
G03*
X16052000Y-10560000I-50000J0D01*
G01*
D14*
X12573000Y-7838000D02*
X12573000Y-7948000D01*
X12518000Y-7893000D02*
X12628000Y-7893000D01*
X12573000Y-9362000D02*
X12573000Y-9472000D01*
X12518000Y-9417000D02*
X12628000Y-9417000D01*
X12827000Y-7838000D02*
X12827000Y-7948000D01*
X12772000Y-7893000D02*
X12882000Y-7893000D01*
X12827000Y-9362000D02*
X12827000Y-9472000D01*
X12772000Y-9417000D02*
X12882000Y-9417000D01*
X13081000Y-7838000D02*
X13081000Y-7948000D01*
X13026000Y-7893000D02*
X13136000Y-7893000D01*
X13081000Y-9362000D02*
X13081000Y-9472000D01*
X13026000Y-9417000D02*
X13136000Y-9417000D01*
X13335000Y-7838000D02*
X13335000Y-7948000D01*
X13280000Y-7893000D02*
X13390000Y-7893000D01*
X13335000Y-9362000D02*
X13335000Y-9472000D01*
X13280000Y-9417000D02*
X13390000Y-9417000D01*
X13589000Y-7838000D02*
X13589000Y-7948000D01*
X13534000Y-7893000D02*
X13644000Y-7893000D01*
X13589000Y-9362000D02*
X13589000Y-9472000D01*
X13534000Y-9417000D02*
X13644000Y-9417000D01*
X13843000Y-7838000D02*
X13843000Y-7948000D01*
X13788000Y-7893000D02*
X13898000Y-7893000D01*
X13843000Y-9362000D02*
X13843000Y-9472000D01*
X13788000Y-9417000D02*
X13898000Y-9417000D01*
X14097000Y-7838000D02*
X14097000Y-7948000D01*
X14042000Y-7893000D02*
X14152000Y-7893000D01*
X14097000Y-9362000D02*
X14097000Y-9472000D01*
X14042000Y-9417000D02*
X14152000Y-9417000D01*
X14351000Y-7838000D02*
X14351000Y-7948000D01*
X14296000Y-7893000D02*
X14406000Y-7893000D01*
X14351000Y-9362000D02*
X14351000Y-9472000D01*
X14296000Y-9417000D02*
X14406000Y-9417000D01*
X14605000Y-7838000D02*
X14605000Y-7948000D01*
X14550000Y-7893000D02*
X14660000Y-7893000D01*
X14605000Y-9362000D02*
X14605000Y-9472000D01*
X14550000Y-9417000D02*
X14660000Y-9417000D01*
X14859000Y-7838000D02*
X14859000Y-7948000D01*
X14804000Y-7893000D02*
X14914000Y-7893000D01*
X14859000Y-9362000D02*
X14859000Y-9472000D01*
X14804000Y-9417000D02*
X14914000Y-9417000D01*
X15113000Y-7838000D02*
X15113000Y-7948000D01*
X15058000Y-7893000D02*
X15168000Y-7893000D01*
X15113000Y-9362000D02*
X15113000Y-9472000D01*
X15058000Y-9417000D02*
X15168000Y-9417000D01*
X15367000Y-7838000D02*
X15367000Y-7948000D01*
X15312000Y-7893000D02*
X15422000Y-7893000D01*
X15367000Y-9362000D02*
X15367000Y-9472000D01*
X15312000Y-9417000D02*
X15422000Y-9417000D01*
D15*
X13007105Y-10294105D02*
X13007105Y-10173895D01*
X12886895Y-10173895D01*
X12886895Y-10294105D01*
X13007105Y-10294105D01*
X15561105Y-10294105D02*
X15561105Y-10173895D01*
X15440895Y-10173895D01*
X15440895Y-10294105D01*
X15561105Y-10294105D01*
D11*
X12437119Y-11383024D02*
X12437119Y-11183024D01*
X12437119Y-11183024D02*
X12484738Y-11183024D01*
X12484738Y-11183024D02*
X12513309Y-11192548D01*
X12513309Y-11192548D02*
X12532357Y-11211595D01*
X12532357Y-11211595D02*
X12541881Y-11230643D01*
X12541881Y-11230643D02*
X12551405Y-11268738D01*
X12551405Y-11268738D02*
X12551405Y-11297309D01*
X12551405Y-11297309D02*
X12541881Y-11335405D01*
X12541881Y-11335405D02*
X12532357Y-11354452D01*
X12532357Y-11354452D02*
X12513309Y-11373500D01*
X12513309Y-11373500D02*
X12484738Y-11383024D01*
X12484738Y-11383024D02*
X12437119Y-11383024D01*
X12637119Y-11383024D02*
X12637119Y-11249690D01*
X12637119Y-11287786D02*
X12646643Y-11268738D01*
X12646643Y-11268738D02*
X12656167Y-11259214D01*
X12656167Y-11259214D02*
X12675214Y-11249690D01*
X12675214Y-11249690D02*
X12694262Y-11249690D01*
X12760928Y-11383024D02*
X12760928Y-11249690D01*
X12760928Y-11183024D02*
X12751405Y-11192548D01*
X12751405Y-11192548D02*
X12760928Y-11202071D01*
X12760928Y-11202071D02*
X12770452Y-11192548D01*
X12770452Y-11192548D02*
X12760928Y-11183024D01*
X12760928Y-11183024D02*
X12760928Y-11202071D01*
X12884738Y-11383024D02*
X12865690Y-11373500D01*
X12865690Y-11373500D02*
X12856167Y-11354452D01*
X12856167Y-11354452D02*
X12856167Y-11183024D01*
X12989500Y-11383024D02*
X12970452Y-11373500D01*
X12970452Y-11373500D02*
X12960928Y-11354452D01*
X12960928Y-11354452D02*
X12960928Y-11183024D01*
X13218071Y-11383024D02*
X13218071Y-11183024D01*
X13218071Y-11183024D02*
X13284738Y-11325881D01*
X13284738Y-11325881D02*
X13351405Y-11183024D01*
X13351405Y-11183024D02*
X13351405Y-11383024D01*
X13532357Y-11383024D02*
X13532357Y-11278262D01*
X13532357Y-11278262D02*
X13522833Y-11259214D01*
X13522833Y-11259214D02*
X13503786Y-11249690D01*
X13503786Y-11249690D02*
X13465690Y-11249690D01*
X13465690Y-11249690D02*
X13446643Y-11259214D01*
X13532357Y-11373500D02*
X13513309Y-11383024D01*
X13513309Y-11383024D02*
X13465690Y-11383024D01*
X13465690Y-11383024D02*
X13446643Y-11373500D01*
X13446643Y-11373500D02*
X13437119Y-11354452D01*
X13437119Y-11354452D02*
X13437119Y-11335405D01*
X13437119Y-11335405D02*
X13446643Y-11316357D01*
X13446643Y-11316357D02*
X13465690Y-11306833D01*
X13465690Y-11306833D02*
X13513309Y-11306833D01*
X13513309Y-11306833D02*
X13532357Y-11297309D01*
X13627595Y-11249690D02*
X13627595Y-11449690D01*
X13627595Y-11259214D02*
X13646643Y-11249690D01*
X13646643Y-11249690D02*
X13684738Y-11249690D01*
X13684738Y-11249690D02*
X13703786Y-11259214D01*
X13703786Y-11259214D02*
X13713309Y-11268738D01*
X13713309Y-11268738D02*
X13722833Y-11287786D01*
X13722833Y-11287786D02*
X13722833Y-11344928D01*
X13722833Y-11344928D02*
X13713309Y-11363976D01*
X13713309Y-11363976D02*
X13703786Y-11373500D01*
X13703786Y-11373500D02*
X13684738Y-11383024D01*
X13684738Y-11383024D02*
X13646643Y-11383024D01*
X13646643Y-11383024D02*
X13627595Y-11373500D01*
X13808548Y-11363976D02*
X13818071Y-11373500D01*
X13818071Y-11373500D02*
X13808548Y-11383024D01*
X13808548Y-11383024D02*
X13799024Y-11373500D01*
X13799024Y-11373500D02*
X13808548Y-11363976D01*
X13808548Y-11363976D02*
X13808548Y-11383024D01*
X13808548Y-11259214D02*
X13818071Y-11268738D01*
X13818071Y-11268738D02*
X13808548Y-11278262D01*
X13808548Y-11278262D02*
X13799024Y-11268738D01*
X13799024Y-11268738D02*
X13808548Y-11259214D01*
X13808548Y-11259214D02*
X13808548Y-11278262D01*
D12*
X12134500Y-11683000D02*
X12189500Y-11738000D01*
X12189500Y-11683000D02*
X12134500Y-11738000D01*
D11*
X12475214Y-11603024D02*
X12494262Y-11603024D01*
X12494262Y-11603024D02*
X12513309Y-11612548D01*
X12513309Y-11612548D02*
X12522833Y-11622071D01*
X12522833Y-11622071D02*
X12532357Y-11641119D01*
X12532357Y-11641119D02*
X12541881Y-11679214D01*
X12541881Y-11679214D02*
X12541881Y-11726833D01*
X12541881Y-11726833D02*
X12532357Y-11764928D01*
X12532357Y-11764928D02*
X12522833Y-11783976D01*
X12522833Y-11783976D02*
X12513309Y-11793500D01*
X12513309Y-11793500D02*
X12494262Y-11803024D01*
X12494262Y-11803024D02*
X12475214Y-11803024D01*
X12475214Y-11803024D02*
X12456167Y-11793500D01*
X12456167Y-11793500D02*
X12446643Y-11783976D01*
X12446643Y-11783976D02*
X12437119Y-11764928D01*
X12437119Y-11764928D02*
X12427595Y-11726833D01*
X12427595Y-11726833D02*
X12427595Y-11679214D01*
X12427595Y-11679214D02*
X12437119Y-11641119D01*
X12437119Y-11641119D02*
X12446643Y-11622071D01*
X12446643Y-11622071D02*
X12456167Y-11612548D01*
X12456167Y-11612548D02*
X12475214Y-11603024D01*
X12627595Y-11783976D02*
X12637119Y-11793500D01*
X12637119Y-11793500D02*
X12627595Y-11803024D01*
X12627595Y-11803024D02*
X12618071Y-11793500D01*
X12618071Y-11793500D02*
X12627595Y-11783976D01*
X12627595Y-11783976D02*
X12627595Y-11803024D01*
X12818071Y-11603024D02*
X12722833Y-11603024D01*
X12722833Y-11603024D02*
X12713309Y-11698262D01*
X12713309Y-11698262D02*
X12722833Y-11688738D01*
X12722833Y-11688738D02*
X12741881Y-11679214D01*
X12741881Y-11679214D02*
X12789500Y-11679214D01*
X12789500Y-11679214D02*
X12808548Y-11688738D01*
X12808548Y-11688738D02*
X12818071Y-11698262D01*
X12818071Y-11698262D02*
X12827595Y-11717309D01*
X12827595Y-11717309D02*
X12827595Y-11764928D01*
X12827595Y-11764928D02*
X12818071Y-11783976D01*
X12818071Y-11783976D02*
X12808548Y-11793500D01*
X12808548Y-11793500D02*
X12789500Y-11803024D01*
X12789500Y-11803024D02*
X12741881Y-11803024D01*
X12741881Y-11803024D02*
X12722833Y-11793500D01*
X12722833Y-11793500D02*
X12713309Y-11783976D01*
X13008548Y-11603024D02*
X12913309Y-11603024D01*
X12913309Y-11603024D02*
X12903786Y-11698262D01*
X12903786Y-11698262D02*
X12913309Y-11688738D01*
X12913309Y-11688738D02*
X12932357Y-11679214D01*
X12932357Y-11679214D02*
X12979976Y-11679214D01*
X12979976Y-11679214D02*
X12999024Y-11688738D01*
X12999024Y-11688738D02*
X13008548Y-11698262D01*
X13008548Y-11698262D02*
X13018071Y-11717309D01*
X13018071Y-11717309D02*
X13018071Y-11764928D01*
X13018071Y-11764928D02*
X13008548Y-11783976D01*
X13008548Y-11783976D02*
X12999024Y-11793500D01*
X12999024Y-11793500D02*
X12979976Y-11803024D01*
X12979976Y-11803024D02*
X12932357Y-11803024D01*
X12932357Y-11803024D02*
X12913309Y-11793500D01*
X12913309Y-11793500D02*
X12903786Y-11783976D01*
X13141881Y-11603024D02*
X13160929Y-11603024D01*
X13160929Y-11603024D02*
X13179976Y-11612548D01*
X13179976Y-11612548D02*
X13189500Y-11622071D01*
X13189500Y-11622071D02*
X13199024Y-11641119D01*
X13199024Y-11641119D02*
X13208548Y-11679214D01*
X13208548Y-11679214D02*
X13208548Y-11726833D01*
X13208548Y-11726833D02*
X13199024Y-11764928D01*
X13199024Y-11764928D02*
X13189500Y-11783976D01*
X13189500Y-11783976D02*
X13179976Y-11793500D01*
X13179976Y-11793500D02*
X13160929Y-11803024D01*
X13160929Y-11803024D02*
X13141881Y-11803024D01*
X13141881Y-11803024D02*
X13122833Y-11793500D01*
X13122833Y-11793500D02*
X13113309Y-11783976D01*
X13113309Y-11783976D02*
X13103786Y-11764928D01*
X13103786Y-11764928D02*
X13094262Y-11726833D01*
X13094262Y-11726833D02*
X13094262Y-11679214D01*
X13094262Y-11679214D02*
X13103786Y-11641119D01*
X13103786Y-11641119D02*
X13113309Y-11622071D01*
X13113309Y-11622071D02*
X13122833Y-11612548D01*
X13122833Y-11612548D02*
X13141881Y-11603024D01*
X13294262Y-11803024D02*
X13294262Y-11669690D01*
X13294262Y-11688738D02*
X13303786Y-11679214D01*
X13303786Y-11679214D02*
X13322833Y-11669690D01*
X13322833Y-11669690D02*
X13351405Y-11669690D01*
X13351405Y-11669690D02*
X13370452Y-11679214D01*
X13370452Y-11679214D02*
X13379976Y-11698262D01*
X13379976Y-11698262D02*
X13379976Y-11803024D01*
X13379976Y-11698262D02*
X13389500Y-11679214D01*
X13389500Y-11679214D02*
X13408548Y-11669690D01*
X13408548Y-11669690D02*
X13437119Y-11669690D01*
X13437119Y-11669690D02*
X13456167Y-11679214D01*
X13456167Y-11679214D02*
X13465690Y-11698262D01*
X13465690Y-11698262D02*
X13465690Y-11803024D01*
X13560929Y-11803024D02*
X13560929Y-11669690D01*
X13560929Y-11688738D02*
X13570452Y-11679214D01*
X13570452Y-11679214D02*
X13589500Y-11669690D01*
X13589500Y-11669690D02*
X13618071Y-11669690D01*
X13618071Y-11669690D02*
X13637119Y-11679214D01*
X13637119Y-11679214D02*
X13646643Y-11698262D01*
X13646643Y-11698262D02*
X13646643Y-11803024D01*
X13646643Y-11698262D02*
X13656167Y-11679214D01*
X13656167Y-11679214D02*
X13675214Y-11669690D01*
X13675214Y-11669690D02*
X13703786Y-11669690D01*
X13703786Y-11669690D02*
X13722833Y-11679214D01*
X13722833Y-11679214D02*
X13732357Y-11698262D01*
X13732357Y-11698262D02*
X13732357Y-11803024D01*
X14122833Y-11593500D02*
X13951405Y-11850643D01*
X14379976Y-11603024D02*
X14399024Y-11603024D01*
X14399024Y-11603024D02*
X14418072Y-11612548D01*
X14418072Y-11612548D02*
X14427595Y-11622071D01*
X14427595Y-11622071D02*
X14437119Y-11641119D01*
X14437119Y-11641119D02*
X14446643Y-11679214D01*
X14446643Y-11679214D02*
X14446643Y-11726833D01*
X14446643Y-11726833D02*
X14437119Y-11764928D01*
X14437119Y-11764928D02*
X14427595Y-11783976D01*
X14427595Y-11783976D02*
X14418072Y-11793500D01*
X14418072Y-11793500D02*
X14399024Y-11803024D01*
X14399024Y-11803024D02*
X14379976Y-11803024D01*
X14379976Y-11803024D02*
X14360929Y-11793500D01*
X14360929Y-11793500D02*
X14351405Y-11783976D01*
X14351405Y-11783976D02*
X14341881Y-11764928D01*
X14341881Y-11764928D02*
X14332357Y-11726833D01*
X14332357Y-11726833D02*
X14332357Y-11679214D01*
X14332357Y-11679214D02*
X14341881Y-11641119D01*
X14341881Y-11641119D02*
X14351405Y-11622071D01*
X14351405Y-11622071D02*
X14360929Y-11612548D01*
X14360929Y-11612548D02*
X14379976Y-11603024D01*
X14532357Y-11783976D02*
X14541881Y-11793500D01*
X14541881Y-11793500D02*
X14532357Y-11803024D01*
X14532357Y-11803024D02*
X14522833Y-11793500D01*
X14522833Y-11793500D02*
X14532357Y-11783976D01*
X14532357Y-11783976D02*
X14532357Y-11803024D01*
X14665691Y-11603024D02*
X14684738Y-11603024D01*
X14684738Y-11603024D02*
X14703786Y-11612548D01*
X14703786Y-11612548D02*
X14713310Y-11622071D01*
X14713310Y-11622071D02*
X14722833Y-11641119D01*
X14722833Y-11641119D02*
X14732357Y-11679214D01*
X14732357Y-11679214D02*
X14732357Y-11726833D01*
X14732357Y-11726833D02*
X14722833Y-11764928D01*
X14722833Y-11764928D02*
X14713310Y-11783976D01*
X14713310Y-11783976D02*
X14703786Y-11793500D01*
X14703786Y-11793500D02*
X14684738Y-11803024D01*
X14684738Y-11803024D02*
X14665691Y-11803024D01*
X14665691Y-11803024D02*
X14646643Y-11793500D01*
X14646643Y-11793500D02*
X14637119Y-11783976D01*
X14637119Y-11783976D02*
X14627595Y-11764928D01*
X14627595Y-11764928D02*
X14618072Y-11726833D01*
X14618072Y-11726833D02*
X14618072Y-11679214D01*
X14618072Y-11679214D02*
X14627595Y-11641119D01*
X14627595Y-11641119D02*
X14637119Y-11622071D01*
X14637119Y-11622071D02*
X14646643Y-11612548D01*
X14646643Y-11612548D02*
X14665691Y-11603024D01*
X14808548Y-11622071D02*
X14818072Y-11612548D01*
X14818072Y-11612548D02*
X14837119Y-11603024D01*
X14837119Y-11603024D02*
X14884738Y-11603024D01*
X14884738Y-11603024D02*
X14903786Y-11612548D01*
X14903786Y-11612548D02*
X14913310Y-11622071D01*
X14913310Y-11622071D02*
X14922833Y-11641119D01*
X14922833Y-11641119D02*
X14922833Y-11660167D01*
X14922833Y-11660167D02*
X14913310Y-11688738D01*
X14913310Y-11688738D02*
X14799024Y-11803024D01*
X14799024Y-11803024D02*
X14922833Y-11803024D01*
X15113310Y-11803024D02*
X14999024Y-11803024D01*
X15056167Y-11803024D02*
X15056167Y-11603024D01*
X15056167Y-11603024D02*
X15037119Y-11631595D01*
X15037119Y-11631595D02*
X15018072Y-11650643D01*
X15018072Y-11650643D02*
X14999024Y-11660167D01*
X15179976Y-11603024D02*
X15313310Y-11603024D01*
X15313310Y-11603024D02*
X15227595Y-11803024D01*
X15379976Y-11603024D02*
X15379976Y-11641119D01*
X15456167Y-11603024D02*
X15456167Y-11641119D01*
X15751405Y-11879214D02*
X15741881Y-11869690D01*
X15741881Y-11869690D02*
X15722834Y-11841119D01*
X15722834Y-11841119D02*
X15713310Y-11822071D01*
X15713310Y-11822071D02*
X15703786Y-11793500D01*
X15703786Y-11793500D02*
X15694262Y-11745881D01*
X15694262Y-11745881D02*
X15694262Y-11707786D01*
X15694262Y-11707786D02*
X15703786Y-11660167D01*
X15703786Y-11660167D02*
X15713310Y-11631595D01*
X15713310Y-11631595D02*
X15722834Y-11612548D01*
X15722834Y-11612548D02*
X15741881Y-11583976D01*
X15741881Y-11583976D02*
X15751405Y-11574452D01*
X15932357Y-11803024D02*
X15818072Y-11803024D01*
X15875214Y-11803024D02*
X15875214Y-11603024D01*
X15875214Y-11603024D02*
X15856167Y-11631595D01*
X15856167Y-11631595D02*
X15837119Y-11650643D01*
X15837119Y-11650643D02*
X15818072Y-11660167D01*
X16113310Y-11603024D02*
X16018072Y-11603024D01*
X16018072Y-11603024D02*
X16008548Y-11698262D01*
X16008548Y-11698262D02*
X16018072Y-11688738D01*
X16018072Y-11688738D02*
X16037119Y-11679214D01*
X16037119Y-11679214D02*
X16084738Y-11679214D01*
X16084738Y-11679214D02*
X16103786Y-11688738D01*
X16103786Y-11688738D02*
X16113310Y-11698262D01*
X16113310Y-11698262D02*
X16122834Y-11717309D01*
X16122834Y-11717309D02*
X16122834Y-11764928D01*
X16122834Y-11764928D02*
X16113310Y-11783976D01*
X16113310Y-11783976D02*
X16103786Y-11793500D01*
X16103786Y-11793500D02*
X16084738Y-11803024D01*
X16084738Y-11803024D02*
X16037119Y-11803024D01*
X16037119Y-11803024D02*
X16018072Y-11793500D01*
X16018072Y-11793500D02*
X16008548Y-11783976D01*
X16360929Y-11803024D02*
X16360929Y-11603024D01*
X16446643Y-11803024D02*
X16446643Y-11698262D01*
X16446643Y-11698262D02*
X16437119Y-11679214D01*
X16437119Y-11679214D02*
X16418072Y-11669690D01*
X16418072Y-11669690D02*
X16389500Y-11669690D01*
X16389500Y-11669690D02*
X16370453Y-11679214D01*
X16370453Y-11679214D02*
X16360929Y-11688738D01*
X16570453Y-11803024D02*
X16551405Y-11793500D01*
X16551405Y-11793500D02*
X16541881Y-11783976D01*
X16541881Y-11783976D02*
X16532357Y-11764928D01*
X16532357Y-11764928D02*
X16532357Y-11707786D01*
X16532357Y-11707786D02*
X16541881Y-11688738D01*
X16541881Y-11688738D02*
X16551405Y-11679214D01*
X16551405Y-11679214D02*
X16570453Y-11669690D01*
X16570453Y-11669690D02*
X16599024Y-11669690D01*
X16599024Y-11669690D02*
X16618072Y-11679214D01*
X16618072Y-11679214D02*
X16627596Y-11688738D01*
X16627596Y-11688738D02*
X16637119Y-11707786D01*
X16637119Y-11707786D02*
X16637119Y-11764928D01*
X16637119Y-11764928D02*
X16627596Y-11783976D01*
X16627596Y-11783976D02*
X16618072Y-11793500D01*
X16618072Y-11793500D02*
X16599024Y-11803024D01*
X16599024Y-11803024D02*
X16570453Y-11803024D01*
X16751405Y-11803024D02*
X16732357Y-11793500D01*
X16732357Y-11793500D02*
X16722834Y-11774452D01*
X16722834Y-11774452D02*
X16722834Y-11603024D01*
X16903786Y-11793500D02*
X16884739Y-11803024D01*
X16884739Y-11803024D02*
X16846643Y-11803024D01*
X16846643Y-11803024D02*
X16827596Y-11793500D01*
X16827596Y-11793500D02*
X16818072Y-11774452D01*
X16818072Y-11774452D02*
X16818072Y-11698262D01*
X16818072Y-11698262D02*
X16827596Y-11679214D01*
X16827596Y-11679214D02*
X16846643Y-11669690D01*
X16846643Y-11669690D02*
X16884739Y-11669690D01*
X16884739Y-11669690D02*
X16903786Y-11679214D01*
X16903786Y-11679214D02*
X16913310Y-11698262D01*
X16913310Y-11698262D02*
X16913310Y-11717309D01*
X16913310Y-11717309D02*
X16818072Y-11736357D01*
X16989500Y-11793500D02*
X17008548Y-11803024D01*
X17008548Y-11803024D02*
X17046643Y-11803024D01*
X17046643Y-11803024D02*
X17065691Y-11793500D01*
X17065691Y-11793500D02*
X17075215Y-11774452D01*
X17075215Y-11774452D02*
X17075215Y-11764928D01*
X17075215Y-11764928D02*
X17065691Y-11745881D01*
X17065691Y-11745881D02*
X17046643Y-11736357D01*
X17046643Y-11736357D02*
X17018072Y-11736357D01*
X17018072Y-11736357D02*
X16999024Y-11726833D01*
X16999024Y-11726833D02*
X16989500Y-11707786D01*
X16989500Y-11707786D02*
X16989500Y-11698262D01*
X16989500Y-11698262D02*
X16999024Y-11679214D01*
X16999024Y-11679214D02*
X17018072Y-11669690D01*
X17018072Y-11669690D02*
X17046643Y-11669690D01*
X17046643Y-11669690D02*
X17065691Y-11679214D01*
X17141881Y-11879214D02*
X17151405Y-11869690D01*
X17151405Y-11869690D02*
X17170453Y-11841119D01*
X17170453Y-11841119D02*
X17179977Y-11822071D01*
X17179977Y-11822071D02*
X17189500Y-11793500D01*
X17189500Y-11793500D02*
X17199024Y-11745881D01*
X17199024Y-11745881D02*
X17199024Y-11707786D01*
X17199024Y-11707786D02*
X17189500Y-11660167D01*
X17189500Y-11660167D02*
X17179977Y-11631595D01*
X17179977Y-11631595D02*
X17170453Y-11612548D01*
X17170453Y-11612548D02*
X17151405Y-11583976D01*
X17151405Y-11583976D02*
X17141881Y-11574452D01*
D13*
X12189500Y-11974500D02*
G75*
G03*
X12189500Y-11974500I-50000J0D01*
G01*
D11*
X12541881Y-12067024D02*
X12427595Y-12067024D01*
X12484738Y-12067024D02*
X12484738Y-11867024D01*
X12484738Y-11867024D02*
X12465690Y-11895595D01*
X12465690Y-11895595D02*
X12446643Y-11914643D01*
X12446643Y-11914643D02*
X12427595Y-11924167D01*
X12627595Y-12047976D02*
X12637119Y-12057500D01*
X12637119Y-12057500D02*
X12627595Y-12067024D01*
X12627595Y-12067024D02*
X12618071Y-12057500D01*
X12618071Y-12057500D02*
X12627595Y-12047976D01*
X12627595Y-12047976D02*
X12627595Y-12067024D01*
X12760928Y-11867024D02*
X12779976Y-11867024D01*
X12779976Y-11867024D02*
X12799024Y-11876548D01*
X12799024Y-11876548D02*
X12808548Y-11886071D01*
X12808548Y-11886071D02*
X12818071Y-11905119D01*
X12818071Y-11905119D02*
X12827595Y-11943214D01*
X12827595Y-11943214D02*
X12827595Y-11990833D01*
X12827595Y-11990833D02*
X12818071Y-12028928D01*
X12818071Y-12028928D02*
X12808548Y-12047976D01*
X12808548Y-12047976D02*
X12799024Y-12057500D01*
X12799024Y-12057500D02*
X12779976Y-12067024D01*
X12779976Y-12067024D02*
X12760928Y-12067024D01*
X12760928Y-12067024D02*
X12741881Y-12057500D01*
X12741881Y-12057500D02*
X12732357Y-12047976D01*
X12732357Y-12047976D02*
X12722833Y-12028928D01*
X12722833Y-12028928D02*
X12713309Y-11990833D01*
X12713309Y-11990833D02*
X12713309Y-11943214D01*
X12713309Y-11943214D02*
X12722833Y-11905119D01*
X12722833Y-11905119D02*
X12732357Y-11886071D01*
X12732357Y-11886071D02*
X12741881Y-11876548D01*
X12741881Y-11876548D02*
X12760928Y-11867024D01*
X12951405Y-11867024D02*
X12970452Y-11867024D01*
X12970452Y-11867024D02*
X12989500Y-11876548D01*
X12989500Y-11876548D02*
X12999024Y-11886071D01*
X12999024Y-11886071D02*
X13008548Y-11905119D01*
X13008548Y-11905119D02*
X13018071Y-11943214D01*
X13018071Y-11943214D02*
X13018071Y-11990833D01*
X13018071Y-11990833D02*
X13008548Y-12028928D01*
X13008548Y-12028928D02*
X12999024Y-12047976D01*
X12999024Y-12047976D02*
X12989500Y-12057500D01*
X12989500Y-12057500D02*
X12970452Y-12067024D01*
X12970452Y-12067024D02*
X12951405Y-12067024D01*
X12951405Y-12067024D02*
X12932357Y-12057500D01*
X12932357Y-12057500D02*
X12922833Y-12047976D01*
X12922833Y-12047976D02*
X12913309Y-12028928D01*
X12913309Y-12028928D02*
X12903786Y-11990833D01*
X12903786Y-11990833D02*
X12903786Y-11943214D01*
X12903786Y-11943214D02*
X12913309Y-11905119D01*
X12913309Y-11905119D02*
X12922833Y-11886071D01*
X12922833Y-11886071D02*
X12932357Y-11876548D01*
X12932357Y-11876548D02*
X12951405Y-11867024D01*
X13141881Y-11867024D02*
X13160929Y-11867024D01*
X13160929Y-11867024D02*
X13179976Y-11876548D01*
X13179976Y-11876548D02*
X13189500Y-11886071D01*
X13189500Y-11886071D02*
X13199024Y-11905119D01*
X13199024Y-11905119D02*
X13208548Y-11943214D01*
X13208548Y-11943214D02*
X13208548Y-11990833D01*
X13208548Y-11990833D02*
X13199024Y-12028928D01*
X13199024Y-12028928D02*
X13189500Y-12047976D01*
X13189500Y-12047976D02*
X13179976Y-12057500D01*
X13179976Y-12057500D02*
X13160929Y-12067024D01*
X13160929Y-12067024D02*
X13141881Y-12067024D01*
X13141881Y-12067024D02*
X13122833Y-12057500D01*
X13122833Y-12057500D02*
X13113309Y-12047976D01*
X13113309Y-12047976D02*
X13103786Y-12028928D01*
X13103786Y-12028928D02*
X13094262Y-11990833D01*
X13094262Y-11990833D02*
X13094262Y-11943214D01*
X13094262Y-11943214D02*
X13103786Y-11905119D01*
X13103786Y-11905119D02*
X13113309Y-11886071D01*
X13113309Y-11886071D02*
X13122833Y-11876548D01*
X13122833Y-11876548D02*
X13141881Y-11867024D01*
X13294262Y-12067024D02*
X13294262Y-11933690D01*
X13294262Y-11952738D02*
X13303786Y-11943214D01*
X13303786Y-11943214D02*
X13322833Y-11933690D01*
X13322833Y-11933690D02*
X13351405Y-11933690D01*
X13351405Y-11933690D02*
X13370452Y-11943214D01*
X13370452Y-11943214D02*
X13379976Y-11962262D01*
X13379976Y-11962262D02*
X13379976Y-12067024D01*
X13379976Y-11962262D02*
X13389500Y-11943214D01*
X13389500Y-11943214D02*
X13408548Y-11933690D01*
X13408548Y-11933690D02*
X13437119Y-11933690D01*
X13437119Y-11933690D02*
X13456167Y-11943214D01*
X13456167Y-11943214D02*
X13465690Y-11962262D01*
X13465690Y-11962262D02*
X13465690Y-12067024D01*
X13560929Y-12067024D02*
X13560929Y-11933690D01*
X13560929Y-11952738D02*
X13570452Y-11943214D01*
X13570452Y-11943214D02*
X13589500Y-11933690D01*
X13589500Y-11933690D02*
X13618071Y-11933690D01*
X13618071Y-11933690D02*
X13637119Y-11943214D01*
X13637119Y-11943214D02*
X13646643Y-11962262D01*
X13646643Y-11962262D02*
X13646643Y-12067024D01*
X13646643Y-11962262D02*
X13656167Y-11943214D01*
X13656167Y-11943214D02*
X13675214Y-11933690D01*
X13675214Y-11933690D02*
X13703786Y-11933690D01*
X13703786Y-11933690D02*
X13722833Y-11943214D01*
X13722833Y-11943214D02*
X13732357Y-11962262D01*
X13732357Y-11962262D02*
X13732357Y-12067024D01*
X14122833Y-11857500D02*
X13951405Y-12114643D01*
X14379976Y-11867024D02*
X14399024Y-11867024D01*
X14399024Y-11867024D02*
X14418072Y-11876548D01*
X14418072Y-11876548D02*
X14427595Y-11886071D01*
X14427595Y-11886071D02*
X14437119Y-11905119D01*
X14437119Y-11905119D02*
X14446643Y-11943214D01*
X14446643Y-11943214D02*
X14446643Y-11990833D01*
X14446643Y-11990833D02*
X14437119Y-12028928D01*
X14437119Y-12028928D02*
X14427595Y-12047976D01*
X14427595Y-12047976D02*
X14418072Y-12057500D01*
X14418072Y-12057500D02*
X14399024Y-12067024D01*
X14399024Y-12067024D02*
X14379976Y-12067024D01*
X14379976Y-12067024D02*
X14360929Y-12057500D01*
X14360929Y-12057500D02*
X14351405Y-12047976D01*
X14351405Y-12047976D02*
X14341881Y-12028928D01*
X14341881Y-12028928D02*
X14332357Y-11990833D01*
X14332357Y-11990833D02*
X14332357Y-11943214D01*
X14332357Y-11943214D02*
X14341881Y-11905119D01*
X14341881Y-11905119D02*
X14351405Y-11886071D01*
X14351405Y-11886071D02*
X14360929Y-11876548D01*
X14360929Y-11876548D02*
X14379976Y-11867024D01*
X14532357Y-12047976D02*
X14541881Y-12057500D01*
X14541881Y-12057500D02*
X14532357Y-12067024D01*
X14532357Y-12067024D02*
X14522833Y-12057500D01*
X14522833Y-12057500D02*
X14532357Y-12047976D01*
X14532357Y-12047976D02*
X14532357Y-12067024D01*
X14665691Y-11867024D02*
X14684738Y-11867024D01*
X14684738Y-11867024D02*
X14703786Y-11876548D01*
X14703786Y-11876548D02*
X14713310Y-11886071D01*
X14713310Y-11886071D02*
X14722833Y-11905119D01*
X14722833Y-11905119D02*
X14732357Y-11943214D01*
X14732357Y-11943214D02*
X14732357Y-11990833D01*
X14732357Y-11990833D02*
X14722833Y-12028928D01*
X14722833Y-12028928D02*
X14713310Y-12047976D01*
X14713310Y-12047976D02*
X14703786Y-12057500D01*
X14703786Y-12057500D02*
X14684738Y-12067024D01*
X14684738Y-12067024D02*
X14665691Y-12067024D01*
X14665691Y-12067024D02*
X14646643Y-12057500D01*
X14646643Y-12057500D02*
X14637119Y-12047976D01*
X14637119Y-12047976D02*
X14627595Y-12028928D01*
X14627595Y-12028928D02*
X14618072Y-11990833D01*
X14618072Y-11990833D02*
X14618072Y-11943214D01*
X14618072Y-11943214D02*
X14627595Y-11905119D01*
X14627595Y-11905119D02*
X14637119Y-11886071D01*
X14637119Y-11886071D02*
X14646643Y-11876548D01*
X14646643Y-11876548D02*
X14665691Y-11867024D01*
X14799024Y-11867024D02*
X14922833Y-11867024D01*
X14922833Y-11867024D02*
X14856167Y-11943214D01*
X14856167Y-11943214D02*
X14884738Y-11943214D01*
X14884738Y-11943214D02*
X14903786Y-11952738D01*
X14903786Y-11952738D02*
X14913310Y-11962262D01*
X14913310Y-11962262D02*
X14922833Y-11981309D01*
X14922833Y-11981309D02*
X14922833Y-12028928D01*
X14922833Y-12028928D02*
X14913310Y-12047976D01*
X14913310Y-12047976D02*
X14903786Y-12057500D01*
X14903786Y-12057500D02*
X14884738Y-12067024D01*
X14884738Y-12067024D02*
X14827595Y-12067024D01*
X14827595Y-12067024D02*
X14808548Y-12057500D01*
X14808548Y-12057500D02*
X14799024Y-12047976D01*
X15018072Y-12067024D02*
X15056167Y-12067024D01*
X15056167Y-12067024D02*
X15075214Y-12057500D01*
X15075214Y-12057500D02*
X15084738Y-12047976D01*
X15084738Y-12047976D02*
X15103786Y-12019405D01*
X15103786Y-12019405D02*
X15113310Y-11981309D01*
X15113310Y-11981309D02*
X15113310Y-11905119D01*
X15113310Y-11905119D02*
X15103786Y-11886071D01*
X15103786Y-11886071D02*
X15094262Y-11876548D01*
X15094262Y-11876548D02*
X15075214Y-11867024D01*
X15075214Y-11867024D02*
X15037119Y-11867024D01*
X15037119Y-11867024D02*
X15018072Y-11876548D01*
X15018072Y-11876548D02*
X15008548Y-11886071D01*
X15008548Y-11886071D02*
X14999024Y-11905119D01*
X14999024Y-11905119D02*
X14999024Y-11952738D01*
X14999024Y-11952738D02*
X15008548Y-11971786D01*
X15008548Y-11971786D02*
X15018072Y-11981309D01*
X15018072Y-11981309D02*
X15037119Y-11990833D01*
X15037119Y-11990833D02*
X15075214Y-11990833D01*
X15075214Y-11990833D02*
X15094262Y-11981309D01*
X15094262Y-11981309D02*
X15103786Y-11971786D01*
X15103786Y-11971786D02*
X15113310Y-11952738D01*
X15284738Y-11933690D02*
X15284738Y-12067024D01*
X15237119Y-11857500D02*
X15189500Y-12000357D01*
X15189500Y-12000357D02*
X15313310Y-12000357D01*
X15379976Y-11867024D02*
X15379976Y-11905119D01*
X15456167Y-11867024D02*
X15456167Y-11905119D01*
X15751405Y-12143214D02*
X15741881Y-12133690D01*
X15741881Y-12133690D02*
X15722834Y-12105119D01*
X15722834Y-12105119D02*
X15713310Y-12086071D01*
X15713310Y-12086071D02*
X15703786Y-12057500D01*
X15703786Y-12057500D02*
X15694262Y-12009881D01*
X15694262Y-12009881D02*
X15694262Y-11971786D01*
X15694262Y-11971786D02*
X15703786Y-11924167D01*
X15703786Y-11924167D02*
X15713310Y-11895595D01*
X15713310Y-11895595D02*
X15722834Y-11876548D01*
X15722834Y-11876548D02*
X15741881Y-11847976D01*
X15741881Y-11847976D02*
X15751405Y-11838452D01*
X15913310Y-11867024D02*
X15875214Y-11867024D01*
X15875214Y-11867024D02*
X15856167Y-11876548D01*
X15856167Y-11876548D02*
X15846643Y-11886071D01*
X15846643Y-11886071D02*
X15827595Y-11914643D01*
X15827595Y-11914643D02*
X15818072Y-11952738D01*
X15818072Y-11952738D02*
X15818072Y-12028928D01*
X15818072Y-12028928D02*
X15827595Y-12047976D01*
X15827595Y-12047976D02*
X15837119Y-12057500D01*
X15837119Y-12057500D02*
X15856167Y-12067024D01*
X15856167Y-12067024D02*
X15894262Y-12067024D01*
X15894262Y-12067024D02*
X15913310Y-12057500D01*
X15913310Y-12057500D02*
X15922834Y-12047976D01*
X15922834Y-12047976D02*
X15932357Y-12028928D01*
X15932357Y-12028928D02*
X15932357Y-11981309D01*
X15932357Y-11981309D02*
X15922834Y-11962262D01*
X15922834Y-11962262D02*
X15913310Y-11952738D01*
X15913310Y-11952738D02*
X15894262Y-11943214D01*
X15894262Y-11943214D02*
X15856167Y-11943214D01*
X15856167Y-11943214D02*
X15837119Y-11952738D01*
X15837119Y-11952738D02*
X15827595Y-11962262D01*
X15827595Y-11962262D02*
X15818072Y-11981309D01*
X16170453Y-12067024D02*
X16170453Y-11867024D01*
X16256167Y-12067024D02*
X16256167Y-11962262D01*
X16256167Y-11962262D02*
X16246643Y-11943214D01*
X16246643Y-11943214D02*
X16227596Y-11933690D01*
X16227596Y-11933690D02*
X16199024Y-11933690D01*
X16199024Y-11933690D02*
X16179976Y-11943214D01*
X16179976Y-11943214D02*
X16170453Y-11952738D01*
X16379976Y-12067024D02*
X16360929Y-12057500D01*
X16360929Y-12057500D02*
X16351405Y-12047976D01*
X16351405Y-12047976D02*
X16341881Y-12028928D01*
X16341881Y-12028928D02*
X16341881Y-11971786D01*
X16341881Y-11971786D02*
X16351405Y-11952738D01*
X16351405Y-11952738D02*
X16360929Y-11943214D01*
X16360929Y-11943214D02*
X16379976Y-11933690D01*
X16379976Y-11933690D02*
X16408548Y-11933690D01*
X16408548Y-11933690D02*
X16427596Y-11943214D01*
X16427596Y-11943214D02*
X16437119Y-11952738D01*
X16437119Y-11952738D02*
X16446643Y-11971786D01*
X16446643Y-11971786D02*
X16446643Y-12028928D01*
X16446643Y-12028928D02*
X16437119Y-12047976D01*
X16437119Y-12047976D02*
X16427596Y-12057500D01*
X16427596Y-12057500D02*
X16408548Y-12067024D01*
X16408548Y-12067024D02*
X16379976Y-12067024D01*
X16560929Y-12067024D02*
X16541881Y-12057500D01*
X16541881Y-12057500D02*
X16532357Y-12038452D01*
X16532357Y-12038452D02*
X16532357Y-11867024D01*
X16713310Y-12057500D02*
X16694262Y-12067024D01*
X16694262Y-12067024D02*
X16656167Y-12067024D01*
X16656167Y-12067024D02*
X16637119Y-12057500D01*
X16637119Y-12057500D02*
X16627596Y-12038452D01*
X16627596Y-12038452D02*
X16627596Y-11962262D01*
X16627596Y-11962262D02*
X16637119Y-11943214D01*
X16637119Y-11943214D02*
X16656167Y-11933690D01*
X16656167Y-11933690D02*
X16694262Y-11933690D01*
X16694262Y-11933690D02*
X16713310Y-11943214D01*
X16713310Y-11943214D02*
X16722834Y-11962262D01*
X16722834Y-11962262D02*
X16722834Y-11981309D01*
X16722834Y-11981309D02*
X16627596Y-12000357D01*
X16799024Y-12057500D02*
X16818072Y-12067024D01*
X16818072Y-12067024D02*
X16856167Y-12067024D01*
X16856167Y-12067024D02*
X16875215Y-12057500D01*
X16875215Y-12057500D02*
X16884739Y-12038452D01*
X16884739Y-12038452D02*
X16884739Y-12028928D01*
X16884739Y-12028928D02*
X16875215Y-12009881D01*
X16875215Y-12009881D02*
X16856167Y-12000357D01*
X16856167Y-12000357D02*
X16827596Y-12000357D01*
X16827596Y-12000357D02*
X16808548Y-11990833D01*
X16808548Y-11990833D02*
X16799024Y-11971786D01*
X16799024Y-11971786D02*
X16799024Y-11962262D01*
X16799024Y-11962262D02*
X16808548Y-11943214D01*
X16808548Y-11943214D02*
X16827596Y-11933690D01*
X16827596Y-11933690D02*
X16856167Y-11933690D01*
X16856167Y-11933690D02*
X16875215Y-11943214D01*
X16951405Y-12143214D02*
X16960929Y-12133690D01*
X16960929Y-12133690D02*
X16979977Y-12105119D01*
X16979977Y-12105119D02*
X16989500Y-12086071D01*
X16989500Y-12086071D02*
X16999024Y-12057500D01*
X16999024Y-12057500D02*
X17008548Y-12009881D01*
X17008548Y-12009881D02*
X17008548Y-11971786D01*
X17008548Y-11971786D02*
X16999024Y-11924167D01*
X16999024Y-11924167D02*
X16989500Y-11895595D01*
X16989500Y-11895595D02*
X16979977Y-11876548D01*
X16979977Y-11876548D02*
X16960929Y-11847976D01*
X16960929Y-11847976D02*
X16951405Y-11838452D01*
D14*
X12134500Y-12183500D02*
X12134500Y-12293500D01*
X12079500Y-12238500D02*
X12189500Y-12238500D01*
D11*
X12541881Y-12331024D02*
X12427595Y-12331024D01*
X12484738Y-12331024D02*
X12484738Y-12131024D01*
X12484738Y-12131024D02*
X12465690Y-12159595D01*
X12465690Y-12159595D02*
X12446643Y-12178643D01*
X12446643Y-12178643D02*
X12427595Y-12188167D01*
X12627595Y-12311976D02*
X12637119Y-12321500D01*
X12637119Y-12321500D02*
X12627595Y-12331024D01*
X12627595Y-12331024D02*
X12618071Y-12321500D01*
X12618071Y-12321500D02*
X12627595Y-12311976D01*
X12627595Y-12311976D02*
X12627595Y-12331024D01*
X12827595Y-12331024D02*
X12713309Y-12331024D01*
X12770452Y-12331024D02*
X12770452Y-12131024D01*
X12770452Y-12131024D02*
X12751405Y-12159595D01*
X12751405Y-12159595D02*
X12732357Y-12178643D01*
X12732357Y-12178643D02*
X12713309Y-12188167D01*
X12951405Y-12131024D02*
X12970452Y-12131024D01*
X12970452Y-12131024D02*
X12989500Y-12140548D01*
X12989500Y-12140548D02*
X12999024Y-12150071D01*
X12999024Y-12150071D02*
X13008548Y-12169119D01*
X13008548Y-12169119D02*
X13018071Y-12207214D01*
X13018071Y-12207214D02*
X13018071Y-12254833D01*
X13018071Y-12254833D02*
X13008548Y-12292928D01*
X13008548Y-12292928D02*
X12999024Y-12311976D01*
X12999024Y-12311976D02*
X12989500Y-12321500D01*
X12989500Y-12321500D02*
X12970452Y-12331024D01*
X12970452Y-12331024D02*
X12951405Y-12331024D01*
X12951405Y-12331024D02*
X12932357Y-12321500D01*
X12932357Y-12321500D02*
X12922833Y-12311976D01*
X12922833Y-12311976D02*
X12913309Y-12292928D01*
X12913309Y-12292928D02*
X12903786Y-12254833D01*
X12903786Y-12254833D02*
X12903786Y-12207214D01*
X12903786Y-12207214D02*
X12913309Y-12169119D01*
X12913309Y-12169119D02*
X12922833Y-12150071D01*
X12922833Y-12150071D02*
X12932357Y-12140548D01*
X12932357Y-12140548D02*
X12951405Y-12131024D01*
X13141881Y-12131024D02*
X13160929Y-12131024D01*
X13160929Y-12131024D02*
X13179976Y-12140548D01*
X13179976Y-12140548D02*
X13189500Y-12150071D01*
X13189500Y-12150071D02*
X13199024Y-12169119D01*
X13199024Y-12169119D02*
X13208548Y-12207214D01*
X13208548Y-12207214D02*
X13208548Y-12254833D01*
X13208548Y-12254833D02*
X13199024Y-12292928D01*
X13199024Y-12292928D02*
X13189500Y-12311976D01*
X13189500Y-12311976D02*
X13179976Y-12321500D01*
X13179976Y-12321500D02*
X13160929Y-12331024D01*
X13160929Y-12331024D02*
X13141881Y-12331024D01*
X13141881Y-12331024D02*
X13122833Y-12321500D01*
X13122833Y-12321500D02*
X13113309Y-12311976D01*
X13113309Y-12311976D02*
X13103786Y-12292928D01*
X13103786Y-12292928D02*
X13094262Y-12254833D01*
X13094262Y-12254833D02*
X13094262Y-12207214D01*
X13094262Y-12207214D02*
X13103786Y-12169119D01*
X13103786Y-12169119D02*
X13113309Y-12150071D01*
X13113309Y-12150071D02*
X13122833Y-12140548D01*
X13122833Y-12140548D02*
X13141881Y-12131024D01*
X13294262Y-12331024D02*
X13294262Y-12197690D01*
X13294262Y-12216738D02*
X13303786Y-12207214D01*
X13303786Y-12207214D02*
X13322833Y-12197690D01*
X13322833Y-12197690D02*
X13351405Y-12197690D01*
X13351405Y-12197690D02*
X13370452Y-12207214D01*
X13370452Y-12207214D02*
X13379976Y-12226262D01*
X13379976Y-12226262D02*
X13379976Y-12331024D01*
X13379976Y-12226262D02*
X13389500Y-12207214D01*
X13389500Y-12207214D02*
X13408548Y-12197690D01*
X13408548Y-12197690D02*
X13437119Y-12197690D01*
X13437119Y-12197690D02*
X13456167Y-12207214D01*
X13456167Y-12207214D02*
X13465690Y-12226262D01*
X13465690Y-12226262D02*
X13465690Y-12331024D01*
X13560929Y-12331024D02*
X13560929Y-12197690D01*
X13560929Y-12216738D02*
X13570452Y-12207214D01*
X13570452Y-12207214D02*
X13589500Y-12197690D01*
X13589500Y-12197690D02*
X13618071Y-12197690D01*
X13618071Y-12197690D02*
X13637119Y-12207214D01*
X13637119Y-12207214D02*
X13646643Y-12226262D01*
X13646643Y-12226262D02*
X13646643Y-12331024D01*
X13646643Y-12226262D02*
X13656167Y-12207214D01*
X13656167Y-12207214D02*
X13675214Y-12197690D01*
X13675214Y-12197690D02*
X13703786Y-12197690D01*
X13703786Y-12197690D02*
X13722833Y-12207214D01*
X13722833Y-12207214D02*
X13732357Y-12226262D01*
X13732357Y-12226262D02*
X13732357Y-12331024D01*
X14122833Y-12121500D02*
X13951405Y-12378643D01*
X14379976Y-12131024D02*
X14399024Y-12131024D01*
X14399024Y-12131024D02*
X14418072Y-12140548D01*
X14418072Y-12140548D02*
X14427595Y-12150071D01*
X14427595Y-12150071D02*
X14437119Y-12169119D01*
X14437119Y-12169119D02*
X14446643Y-12207214D01*
X14446643Y-12207214D02*
X14446643Y-12254833D01*
X14446643Y-12254833D02*
X14437119Y-12292928D01*
X14437119Y-12292928D02*
X14427595Y-12311976D01*
X14427595Y-12311976D02*
X14418072Y-12321500D01*
X14418072Y-12321500D02*
X14399024Y-12331024D01*
X14399024Y-12331024D02*
X14379976Y-12331024D01*
X14379976Y-12331024D02*
X14360929Y-12321500D01*
X14360929Y-12321500D02*
X14351405Y-12311976D01*
X14351405Y-12311976D02*
X14341881Y-12292928D01*
X14341881Y-12292928D02*
X14332357Y-12254833D01*
X14332357Y-12254833D02*
X14332357Y-12207214D01*
X14332357Y-12207214D02*
X14341881Y-12169119D01*
X14341881Y-12169119D02*
X14351405Y-12150071D01*
X14351405Y-12150071D02*
X14360929Y-12140548D01*
X14360929Y-12140548D02*
X14379976Y-12131024D01*
X14532357Y-12311976D02*
X14541881Y-12321500D01*
X14541881Y-12321500D02*
X14532357Y-12331024D01*
X14532357Y-12331024D02*
X14522833Y-12321500D01*
X14522833Y-12321500D02*
X14532357Y-12311976D01*
X14532357Y-12311976D02*
X14532357Y-12331024D01*
X14665691Y-12131024D02*
X14684738Y-12131024D01*
X14684738Y-12131024D02*
X14703786Y-12140548D01*
X14703786Y-12140548D02*
X14713310Y-12150071D01*
X14713310Y-12150071D02*
X14722833Y-12169119D01*
X14722833Y-12169119D02*
X14732357Y-12207214D01*
X14732357Y-12207214D02*
X14732357Y-12254833D01*
X14732357Y-12254833D02*
X14722833Y-12292928D01*
X14722833Y-12292928D02*
X14713310Y-12311976D01*
X14713310Y-12311976D02*
X14703786Y-12321500D01*
X14703786Y-12321500D02*
X14684738Y-12331024D01*
X14684738Y-12331024D02*
X14665691Y-12331024D01*
X14665691Y-12331024D02*
X14646643Y-12321500D01*
X14646643Y-12321500D02*
X14637119Y-12311976D01*
X14637119Y-12311976D02*
X14627595Y-12292928D01*
X14627595Y-12292928D02*
X14618072Y-12254833D01*
X14618072Y-12254833D02*
X14618072Y-12207214D01*
X14618072Y-12207214D02*
X14627595Y-12169119D01*
X14627595Y-12169119D02*
X14637119Y-12150071D01*
X14637119Y-12150071D02*
X14646643Y-12140548D01*
X14646643Y-12140548D02*
X14665691Y-12131024D01*
X14903786Y-12197690D02*
X14903786Y-12331024D01*
X14856167Y-12121500D02*
X14808548Y-12264357D01*
X14808548Y-12264357D02*
X14932357Y-12264357D01*
X14989500Y-12131024D02*
X15113310Y-12131024D01*
X15113310Y-12131024D02*
X15046643Y-12207214D01*
X15046643Y-12207214D02*
X15075214Y-12207214D01*
X15075214Y-12207214D02*
X15094262Y-12216738D01*
X15094262Y-12216738D02*
X15103786Y-12226262D01*
X15103786Y-12226262D02*
X15113310Y-12245309D01*
X15113310Y-12245309D02*
X15113310Y-12292928D01*
X15113310Y-12292928D02*
X15103786Y-12311976D01*
X15103786Y-12311976D02*
X15094262Y-12321500D01*
X15094262Y-12321500D02*
X15075214Y-12331024D01*
X15075214Y-12331024D02*
X15018072Y-12331024D01*
X15018072Y-12331024D02*
X14999024Y-12321500D01*
X14999024Y-12321500D02*
X14989500Y-12311976D01*
X15179976Y-12131024D02*
X15303786Y-12131024D01*
X15303786Y-12131024D02*
X15237119Y-12207214D01*
X15237119Y-12207214D02*
X15265691Y-12207214D01*
X15265691Y-12207214D02*
X15284738Y-12216738D01*
X15284738Y-12216738D02*
X15294262Y-12226262D01*
X15294262Y-12226262D02*
X15303786Y-12245309D01*
X15303786Y-12245309D02*
X15303786Y-12292928D01*
X15303786Y-12292928D02*
X15294262Y-12311976D01*
X15294262Y-12311976D02*
X15284738Y-12321500D01*
X15284738Y-12321500D02*
X15265691Y-12331024D01*
X15265691Y-12331024D02*
X15208548Y-12331024D01*
X15208548Y-12331024D02*
X15189500Y-12321500D01*
X15189500Y-12321500D02*
X15179976Y-12311976D01*
X15379976Y-12131024D02*
X15379976Y-12169119D01*
X15456167Y-12131024D02*
X15456167Y-12169119D01*
X15751405Y-12407214D02*
X15741881Y-12397690D01*
X15741881Y-12397690D02*
X15722834Y-12369119D01*
X15722834Y-12369119D02*
X15713310Y-12350071D01*
X15713310Y-12350071D02*
X15703786Y-12321500D01*
X15703786Y-12321500D02*
X15694262Y-12273881D01*
X15694262Y-12273881D02*
X15694262Y-12235786D01*
X15694262Y-12235786D02*
X15703786Y-12188167D01*
X15703786Y-12188167D02*
X15713310Y-12159595D01*
X15713310Y-12159595D02*
X15722834Y-12140548D01*
X15722834Y-12140548D02*
X15741881Y-12111976D01*
X15741881Y-12111976D02*
X15751405Y-12102452D01*
X15818072Y-12150071D02*
X15827595Y-12140548D01*
X15827595Y-12140548D02*
X15846643Y-12131024D01*
X15846643Y-12131024D02*
X15894262Y-12131024D01*
X15894262Y-12131024D02*
X15913310Y-12140548D01*
X15913310Y-12140548D02*
X15922834Y-12150071D01*
X15922834Y-12150071D02*
X15932357Y-12169119D01*
X15932357Y-12169119D02*
X15932357Y-12188167D01*
X15932357Y-12188167D02*
X15922834Y-12216738D01*
X15922834Y-12216738D02*
X15808548Y-12331024D01*
X15808548Y-12331024D02*
X15932357Y-12331024D01*
X16103786Y-12197690D02*
X16103786Y-12331024D01*
X16056167Y-12121500D02*
X16008548Y-12264357D01*
X16008548Y-12264357D02*
X16132357Y-12264357D01*
X16360929Y-12331024D02*
X16360929Y-12131024D01*
X16446643Y-12331024D02*
X16446643Y-12226262D01*
X16446643Y-12226262D02*
X16437119Y-12207214D01*
X16437119Y-12207214D02*
X16418072Y-12197690D01*
X16418072Y-12197690D02*
X16389500Y-12197690D01*
X16389500Y-12197690D02*
X16370453Y-12207214D01*
X16370453Y-12207214D02*
X16360929Y-12216738D01*
X16570453Y-12331024D02*
X16551405Y-12321500D01*
X16551405Y-12321500D02*
X16541881Y-12311976D01*
X16541881Y-12311976D02*
X16532357Y-12292928D01*
X16532357Y-12292928D02*
X16532357Y-12235786D01*
X16532357Y-12235786D02*
X16541881Y-12216738D01*
X16541881Y-12216738D02*
X16551405Y-12207214D01*
X16551405Y-12207214D02*
X16570453Y-12197690D01*
X16570453Y-12197690D02*
X16599024Y-12197690D01*
X16599024Y-12197690D02*
X16618072Y-12207214D01*
X16618072Y-12207214D02*
X16627596Y-12216738D01*
X16627596Y-12216738D02*
X16637119Y-12235786D01*
X16637119Y-12235786D02*
X16637119Y-12292928D01*
X16637119Y-12292928D02*
X16627596Y-12311976D01*
X16627596Y-12311976D02*
X16618072Y-12321500D01*
X16618072Y-12321500D02*
X16599024Y-12331024D01*
X16599024Y-12331024D02*
X16570453Y-12331024D01*
X16751405Y-12331024D02*
X16732357Y-12321500D01*
X16732357Y-12321500D02*
X16722834Y-12302452D01*
X16722834Y-12302452D02*
X16722834Y-12131024D01*
X16903786Y-12321500D02*
X16884739Y-12331024D01*
X16884739Y-12331024D02*
X16846643Y-12331024D01*
X16846643Y-12331024D02*
X16827596Y-12321500D01*
X16827596Y-12321500D02*
X16818072Y-12302452D01*
X16818072Y-12302452D02*
X16818072Y-12226262D01*
X16818072Y-12226262D02*
X16827596Y-12207214D01*
X16827596Y-12207214D02*
X16846643Y-12197690D01*
X16846643Y-12197690D02*
X16884739Y-12197690D01*
X16884739Y-12197690D02*
X16903786Y-12207214D01*
X16903786Y-12207214D02*
X16913310Y-12226262D01*
X16913310Y-12226262D02*
X16913310Y-12245309D01*
X16913310Y-12245309D02*
X16818072Y-12264357D01*
X16989500Y-12321500D02*
X17008548Y-12331024D01*
X17008548Y-12331024D02*
X17046643Y-12331024D01*
X17046643Y-12331024D02*
X17065691Y-12321500D01*
X17065691Y-12321500D02*
X17075215Y-12302452D01*
X17075215Y-12302452D02*
X17075215Y-12292928D01*
X17075215Y-12292928D02*
X17065691Y-12273881D01*
X17065691Y-12273881D02*
X17046643Y-12264357D01*
X17046643Y-12264357D02*
X17018072Y-12264357D01*
X17018072Y-12264357D02*
X16999024Y-12254833D01*
X16999024Y-12254833D02*
X16989500Y-12235786D01*
X16989500Y-12235786D02*
X16989500Y-12226262D01*
X16989500Y-12226262D02*
X16999024Y-12207214D01*
X16999024Y-12207214D02*
X17018072Y-12197690D01*
X17018072Y-12197690D02*
X17046643Y-12197690D01*
X17046643Y-12197690D02*
X17065691Y-12207214D01*
X17141881Y-12407214D02*
X17151405Y-12397690D01*
X17151405Y-12397690D02*
X17170453Y-12369119D01*
X17170453Y-12369119D02*
X17179977Y-12350071D01*
X17179977Y-12350071D02*
X17189500Y-12321500D01*
X17189500Y-12321500D02*
X17199024Y-12273881D01*
X17199024Y-12273881D02*
X17199024Y-12235786D01*
X17199024Y-12235786D02*
X17189500Y-12188167D01*
X17189500Y-12188167D02*
X17179977Y-12159595D01*
X17179977Y-12159595D02*
X17170453Y-12140548D01*
X17170453Y-12140548D02*
X17151405Y-12111976D01*
X17151405Y-12111976D02*
X17141881Y-12102452D01*
D15*
X12164605Y-12562605D02*
X12164605Y-12442395D01*
X12044395Y-12442395D01*
X12044395Y-12562605D01*
X12164605Y-12562605D01*
D11*
X12541881Y-12595024D02*
X12427595Y-12595024D01*
X12484738Y-12595024D02*
X12484738Y-12395024D01*
X12484738Y-12395024D02*
X12465690Y-12423595D01*
X12465690Y-12423595D02*
X12446643Y-12442643D01*
X12446643Y-12442643D02*
X12427595Y-12452167D01*
X12627595Y-12575976D02*
X12637119Y-12585500D01*
X12637119Y-12585500D02*
X12627595Y-12595024D01*
X12627595Y-12595024D02*
X12618071Y-12585500D01*
X12618071Y-12585500D02*
X12627595Y-12575976D01*
X12627595Y-12575976D02*
X12627595Y-12595024D01*
X12703786Y-12395024D02*
X12837119Y-12395024D01*
X12837119Y-12395024D02*
X12751405Y-12595024D01*
X12951405Y-12395024D02*
X12970452Y-12395024D01*
X12970452Y-12395024D02*
X12989500Y-12404548D01*
X12989500Y-12404548D02*
X12999024Y-12414071D01*
X12999024Y-12414071D02*
X13008548Y-12433119D01*
X13008548Y-12433119D02*
X13018071Y-12471214D01*
X13018071Y-12471214D02*
X13018071Y-12518833D01*
X13018071Y-12518833D02*
X13008548Y-12556928D01*
X13008548Y-12556928D02*
X12999024Y-12575976D01*
X12999024Y-12575976D02*
X12989500Y-12585500D01*
X12989500Y-12585500D02*
X12970452Y-12595024D01*
X12970452Y-12595024D02*
X12951405Y-12595024D01*
X12951405Y-12595024D02*
X12932357Y-12585500D01*
X12932357Y-12585500D02*
X12922833Y-12575976D01*
X12922833Y-12575976D02*
X12913309Y-12556928D01*
X12913309Y-12556928D02*
X12903786Y-12518833D01*
X12903786Y-12518833D02*
X12903786Y-12471214D01*
X12903786Y-12471214D02*
X12913309Y-12433119D01*
X12913309Y-12433119D02*
X12922833Y-12414071D01*
X12922833Y-12414071D02*
X12932357Y-12404548D01*
X12932357Y-12404548D02*
X12951405Y-12395024D01*
X13141881Y-12395024D02*
X13160929Y-12395024D01*
X13160929Y-12395024D02*
X13179976Y-12404548D01*
X13179976Y-12404548D02*
X13189500Y-12414071D01*
X13189500Y-12414071D02*
X13199024Y-12433119D01*
X13199024Y-12433119D02*
X13208548Y-12471214D01*
X13208548Y-12471214D02*
X13208548Y-12518833D01*
X13208548Y-12518833D02*
X13199024Y-12556928D01*
X13199024Y-12556928D02*
X13189500Y-12575976D01*
X13189500Y-12575976D02*
X13179976Y-12585500D01*
X13179976Y-12585500D02*
X13160929Y-12595024D01*
X13160929Y-12595024D02*
X13141881Y-12595024D01*
X13141881Y-12595024D02*
X13122833Y-12585500D01*
X13122833Y-12585500D02*
X13113309Y-12575976D01*
X13113309Y-12575976D02*
X13103786Y-12556928D01*
X13103786Y-12556928D02*
X13094262Y-12518833D01*
X13094262Y-12518833D02*
X13094262Y-12471214D01*
X13094262Y-12471214D02*
X13103786Y-12433119D01*
X13103786Y-12433119D02*
X13113309Y-12414071D01*
X13113309Y-12414071D02*
X13122833Y-12404548D01*
X13122833Y-12404548D02*
X13141881Y-12395024D01*
X13294262Y-12595024D02*
X13294262Y-12461690D01*
X13294262Y-12480738D02*
X13303786Y-12471214D01*
X13303786Y-12471214D02*
X13322833Y-12461690D01*
X13322833Y-12461690D02*
X13351405Y-12461690D01*
X13351405Y-12461690D02*
X13370452Y-12471214D01*
X13370452Y-12471214D02*
X13379976Y-12490262D01*
X13379976Y-12490262D02*
X13379976Y-12595024D01*
X13379976Y-12490262D02*
X13389500Y-12471214D01*
X13389500Y-12471214D02*
X13408548Y-12461690D01*
X13408548Y-12461690D02*
X13437119Y-12461690D01*
X13437119Y-12461690D02*
X13456167Y-12471214D01*
X13456167Y-12471214D02*
X13465690Y-12490262D01*
X13465690Y-12490262D02*
X13465690Y-12595024D01*
X13560929Y-12595024D02*
X13560929Y-12461690D01*
X13560929Y-12480738D02*
X13570452Y-12471214D01*
X13570452Y-12471214D02*
X13589500Y-12461690D01*
X13589500Y-12461690D02*
X13618071Y-12461690D01*
X13618071Y-12461690D02*
X13637119Y-12471214D01*
X13637119Y-12471214D02*
X13646643Y-12490262D01*
X13646643Y-12490262D02*
X13646643Y-12595024D01*
X13646643Y-12490262D02*
X13656167Y-12471214D01*
X13656167Y-12471214D02*
X13675214Y-12461690D01*
X13675214Y-12461690D02*
X13703786Y-12461690D01*
X13703786Y-12461690D02*
X13722833Y-12471214D01*
X13722833Y-12471214D02*
X13732357Y-12490262D01*
X13732357Y-12490262D02*
X13732357Y-12595024D01*
X14122833Y-12385500D02*
X13951405Y-12642643D01*
X14379976Y-12395024D02*
X14399024Y-12395024D01*
X14399024Y-12395024D02*
X14418072Y-12404548D01*
X14418072Y-12404548D02*
X14427595Y-12414071D01*
X14427595Y-12414071D02*
X14437119Y-12433119D01*
X14437119Y-12433119D02*
X14446643Y-12471214D01*
X14446643Y-12471214D02*
X14446643Y-12518833D01*
X14446643Y-12518833D02*
X14437119Y-12556928D01*
X14437119Y-12556928D02*
X14427595Y-12575976D01*
X14427595Y-12575976D02*
X14418072Y-12585500D01*
X14418072Y-12585500D02*
X14399024Y-12595024D01*
X14399024Y-12595024D02*
X14379976Y-12595024D01*
X14379976Y-12595024D02*
X14360929Y-12585500D01*
X14360929Y-12585500D02*
X14351405Y-12575976D01*
X14351405Y-12575976D02*
X14341881Y-12556928D01*
X14341881Y-12556928D02*
X14332357Y-12518833D01*
X14332357Y-12518833D02*
X14332357Y-12471214D01*
X14332357Y-12471214D02*
X14341881Y-12433119D01*
X14341881Y-12433119D02*
X14351405Y-12414071D01*
X14351405Y-12414071D02*
X14360929Y-12404548D01*
X14360929Y-12404548D02*
X14379976Y-12395024D01*
X14532357Y-12575976D02*
X14541881Y-12585500D01*
X14541881Y-12585500D02*
X14532357Y-12595024D01*
X14532357Y-12595024D02*
X14522833Y-12585500D01*
X14522833Y-12585500D02*
X14532357Y-12575976D01*
X14532357Y-12575976D02*
X14532357Y-12595024D01*
X14665691Y-12395024D02*
X14684738Y-12395024D01*
X14684738Y-12395024D02*
X14703786Y-12404548D01*
X14703786Y-12404548D02*
X14713310Y-12414071D01*
X14713310Y-12414071D02*
X14722833Y-12433119D01*
X14722833Y-12433119D02*
X14732357Y-12471214D01*
X14732357Y-12471214D02*
X14732357Y-12518833D01*
X14732357Y-12518833D02*
X14722833Y-12556928D01*
X14722833Y-12556928D02*
X14713310Y-12575976D01*
X14713310Y-12575976D02*
X14703786Y-12585500D01*
X14703786Y-12585500D02*
X14684738Y-12595024D01*
X14684738Y-12595024D02*
X14665691Y-12595024D01*
X14665691Y-12595024D02*
X14646643Y-12585500D01*
X14646643Y-12585500D02*
X14637119Y-12575976D01*
X14637119Y-12575976D02*
X14627595Y-12556928D01*
X14627595Y-12556928D02*
X14618072Y-12518833D01*
X14618072Y-12518833D02*
X14618072Y-12471214D01*
X14618072Y-12471214D02*
X14627595Y-12433119D01*
X14627595Y-12433119D02*
X14637119Y-12414071D01*
X14637119Y-12414071D02*
X14646643Y-12404548D01*
X14646643Y-12404548D02*
X14665691Y-12395024D01*
X14903786Y-12395024D02*
X14865691Y-12395024D01*
X14865691Y-12395024D02*
X14846643Y-12404548D01*
X14846643Y-12404548D02*
X14837119Y-12414071D01*
X14837119Y-12414071D02*
X14818072Y-12442643D01*
X14818072Y-12442643D02*
X14808548Y-12480738D01*
X14808548Y-12480738D02*
X14808548Y-12556928D01*
X14808548Y-12556928D02*
X14818072Y-12575976D01*
X14818072Y-12575976D02*
X14827595Y-12585500D01*
X14827595Y-12585500D02*
X14846643Y-12595024D01*
X14846643Y-12595024D02*
X14884738Y-12595024D01*
X14884738Y-12595024D02*
X14903786Y-12585500D01*
X14903786Y-12585500D02*
X14913310Y-12575976D01*
X14913310Y-12575976D02*
X14922833Y-12556928D01*
X14922833Y-12556928D02*
X14922833Y-12509309D01*
X14922833Y-12509309D02*
X14913310Y-12490262D01*
X14913310Y-12490262D02*
X14903786Y-12480738D01*
X14903786Y-12480738D02*
X14884738Y-12471214D01*
X14884738Y-12471214D02*
X14846643Y-12471214D01*
X14846643Y-12471214D02*
X14827595Y-12480738D01*
X14827595Y-12480738D02*
X14818072Y-12490262D01*
X14818072Y-12490262D02*
X14808548Y-12509309D01*
X15094262Y-12395024D02*
X15056167Y-12395024D01*
X15056167Y-12395024D02*
X15037119Y-12404548D01*
X15037119Y-12404548D02*
X15027595Y-12414071D01*
X15027595Y-12414071D02*
X15008548Y-12442643D01*
X15008548Y-12442643D02*
X14999024Y-12480738D01*
X14999024Y-12480738D02*
X14999024Y-12556928D01*
X14999024Y-12556928D02*
X15008548Y-12575976D01*
X15008548Y-12575976D02*
X15018072Y-12585500D01*
X15018072Y-12585500D02*
X15037119Y-12595024D01*
X15037119Y-12595024D02*
X15075214Y-12595024D01*
X15075214Y-12595024D02*
X15094262Y-12585500D01*
X15094262Y-12585500D02*
X15103786Y-12575976D01*
X15103786Y-12575976D02*
X15113310Y-12556928D01*
X15113310Y-12556928D02*
X15113310Y-12509309D01*
X15113310Y-12509309D02*
X15103786Y-12490262D01*
X15103786Y-12490262D02*
X15094262Y-12480738D01*
X15094262Y-12480738D02*
X15075214Y-12471214D01*
X15075214Y-12471214D02*
X15037119Y-12471214D01*
X15037119Y-12471214D02*
X15018072Y-12480738D01*
X15018072Y-12480738D02*
X15008548Y-12490262D01*
X15008548Y-12490262D02*
X14999024Y-12509309D01*
X15208548Y-12595024D02*
X15246643Y-12595024D01*
X15246643Y-12595024D02*
X15265691Y-12585500D01*
X15265691Y-12585500D02*
X15275214Y-12575976D01*
X15275214Y-12575976D02*
X15294262Y-12547405D01*
X15294262Y-12547405D02*
X15303786Y-12509309D01*
X15303786Y-12509309D02*
X15303786Y-12433119D01*
X15303786Y-12433119D02*
X15294262Y-12414071D01*
X15294262Y-12414071D02*
X15284738Y-12404548D01*
X15284738Y-12404548D02*
X15265691Y-12395024D01*
X15265691Y-12395024D02*
X15227595Y-12395024D01*
X15227595Y-12395024D02*
X15208548Y-12404548D01*
X15208548Y-12404548D02*
X15199024Y-12414071D01*
X15199024Y-12414071D02*
X15189500Y-12433119D01*
X15189500Y-12433119D02*
X15189500Y-12480738D01*
X15189500Y-12480738D02*
X15199024Y-12499786D01*
X15199024Y-12499786D02*
X15208548Y-12509309D01*
X15208548Y-12509309D02*
X15227595Y-12518833D01*
X15227595Y-12518833D02*
X15265691Y-12518833D01*
X15265691Y-12518833D02*
X15284738Y-12509309D01*
X15284738Y-12509309D02*
X15294262Y-12499786D01*
X15294262Y-12499786D02*
X15303786Y-12480738D01*
X15379976Y-12395024D02*
X15379976Y-12433119D01*
X15456167Y-12395024D02*
X15456167Y-12433119D01*
X15751405Y-12671214D02*
X15741881Y-12661690D01*
X15741881Y-12661690D02*
X15722834Y-12633119D01*
X15722834Y-12633119D02*
X15713310Y-12614071D01*
X15713310Y-12614071D02*
X15703786Y-12585500D01*
X15703786Y-12585500D02*
X15694262Y-12537881D01*
X15694262Y-12537881D02*
X15694262Y-12499786D01*
X15694262Y-12499786D02*
X15703786Y-12452167D01*
X15703786Y-12452167D02*
X15713310Y-12423595D01*
X15713310Y-12423595D02*
X15722834Y-12404548D01*
X15722834Y-12404548D02*
X15741881Y-12375976D01*
X15741881Y-12375976D02*
X15751405Y-12366452D01*
X15818072Y-12414071D02*
X15827595Y-12404548D01*
X15827595Y-12404548D02*
X15846643Y-12395024D01*
X15846643Y-12395024D02*
X15894262Y-12395024D01*
X15894262Y-12395024D02*
X15913310Y-12404548D01*
X15913310Y-12404548D02*
X15922834Y-12414071D01*
X15922834Y-12414071D02*
X15932357Y-12433119D01*
X15932357Y-12433119D02*
X15932357Y-12452167D01*
X15932357Y-12452167D02*
X15922834Y-12480738D01*
X15922834Y-12480738D02*
X15808548Y-12595024D01*
X15808548Y-12595024D02*
X15932357Y-12595024D01*
X16170453Y-12595024D02*
X16170453Y-12395024D01*
X16256167Y-12595024D02*
X16256167Y-12490262D01*
X16256167Y-12490262D02*
X16246643Y-12471214D01*
X16246643Y-12471214D02*
X16227596Y-12461690D01*
X16227596Y-12461690D02*
X16199024Y-12461690D01*
X16199024Y-12461690D02*
X16179976Y-12471214D01*
X16179976Y-12471214D02*
X16170453Y-12480738D01*
X16379976Y-12595024D02*
X16360929Y-12585500D01*
X16360929Y-12585500D02*
X16351405Y-12575976D01*
X16351405Y-12575976D02*
X16341881Y-12556928D01*
X16341881Y-12556928D02*
X16341881Y-12499786D01*
X16341881Y-12499786D02*
X16351405Y-12480738D01*
X16351405Y-12480738D02*
X16360929Y-12471214D01*
X16360929Y-12471214D02*
X16379976Y-12461690D01*
X16379976Y-12461690D02*
X16408548Y-12461690D01*
X16408548Y-12461690D02*
X16427596Y-12471214D01*
X16427596Y-12471214D02*
X16437119Y-12480738D01*
X16437119Y-12480738D02*
X16446643Y-12499786D01*
X16446643Y-12499786D02*
X16446643Y-12556928D01*
X16446643Y-12556928D02*
X16437119Y-12575976D01*
X16437119Y-12575976D02*
X16427596Y-12585500D01*
X16427596Y-12585500D02*
X16408548Y-12595024D01*
X16408548Y-12595024D02*
X16379976Y-12595024D01*
X16560929Y-12595024D02*
X16541881Y-12585500D01*
X16541881Y-12585500D02*
X16532357Y-12566452D01*
X16532357Y-12566452D02*
X16532357Y-12395024D01*
X16713310Y-12585500D02*
X16694262Y-12595024D01*
X16694262Y-12595024D02*
X16656167Y-12595024D01*
X16656167Y-12595024D02*
X16637119Y-12585500D01*
X16637119Y-12585500D02*
X16627596Y-12566452D01*
X16627596Y-12566452D02*
X16627596Y-12490262D01*
X16627596Y-12490262D02*
X16637119Y-12471214D01*
X16637119Y-12471214D02*
X16656167Y-12461690D01*
X16656167Y-12461690D02*
X16694262Y-12461690D01*
X16694262Y-12461690D02*
X16713310Y-12471214D01*
X16713310Y-12471214D02*
X16722834Y-12490262D01*
X16722834Y-12490262D02*
X16722834Y-12509309D01*
X16722834Y-12509309D02*
X16627596Y-12528357D01*
X16799024Y-12585500D02*
X16818072Y-12595024D01*
X16818072Y-12595024D02*
X16856167Y-12595024D01*
X16856167Y-12595024D02*
X16875215Y-12585500D01*
X16875215Y-12585500D02*
X16884739Y-12566452D01*
X16884739Y-12566452D02*
X16884739Y-12556928D01*
X16884739Y-12556928D02*
X16875215Y-12537881D01*
X16875215Y-12537881D02*
X16856167Y-12528357D01*
X16856167Y-12528357D02*
X16827596Y-12528357D01*
X16827596Y-12528357D02*
X16808548Y-12518833D01*
X16808548Y-12518833D02*
X16799024Y-12499786D01*
X16799024Y-12499786D02*
X16799024Y-12490262D01*
X16799024Y-12490262D02*
X16808548Y-12471214D01*
X16808548Y-12471214D02*
X16827596Y-12461690D01*
X16827596Y-12461690D02*
X16856167Y-12461690D01*
X16856167Y-12461690D02*
X16875215Y-12471214D01*
X16951405Y-12671214D02*
X16960929Y-12661690D01*
X16960929Y-12661690D02*
X16979977Y-12633119D01*
X16979977Y-12633119D02*
X16989500Y-12614071D01*
X16989500Y-12614071D02*
X16999024Y-12585500D01*
X16999024Y-12585500D02*
X17008548Y-12537881D01*
X17008548Y-12537881D02*
X17008548Y-12499786D01*
X17008548Y-12499786D02*
X16999024Y-12452167D01*
X16999024Y-12452167D02*
X16989500Y-12423595D01*
X16989500Y-12423595D02*
X16979977Y-12404548D01*
X16979977Y-12404548D02*
X16960929Y-12375976D01*
X16960929Y-12375976D02*
X16951405Y-12366452D01*
M02*
