G04 #@! TF.GenerationSoftware,KiCad,Pcbnew,7.0.1*
G04 #@! TF.CreationDate,2023-04-10T14:55:27+02:00*
G04 #@! TF.ProjectId,LightingNodeProV2,4c696768-7469-46e6-974e-6f646550726f,rev?*
G04 #@! TF.SameCoordinates,Original*
G04 #@! TF.FileFunction,Soldermask,Top*
G04 #@! TF.FilePolarity,Negative*
%FSLAX46Y46*%
G04 Gerber Fmt 4.6, Leading zero omitted, Abs format (unit mm)*
G04 Created by KiCad (PCBNEW 7.0.1) date 2023-04-10 14:55:27*
%MOMM*%
%LPD*%
G01*
G04 APERTURE LIST*
%ADD10C,2.500000*%
%ADD11R,1.700000X1.700000*%
%ADD12O,1.700000X1.700000*%
%ADD13R,1.600000X1.600000*%
%ADD14C,1.600000*%
%ADD15C,0.800000*%
G04 APERTURE END LIST*
D10*
X162920000Y-79680000D03*
D11*
X160020000Y-87820000D03*
D12*
X160020000Y-90360000D03*
X160020000Y-92900000D03*
D13*
X125730000Y-94170000D03*
D14*
X128270000Y-94170000D03*
X130810000Y-94170000D03*
X133350000Y-94170000D03*
X135890000Y-94170000D03*
X138430000Y-94170000D03*
X140970000Y-94170000D03*
X143510000Y-94170000D03*
X146050000Y-94170000D03*
X148590000Y-94170000D03*
X151130000Y-94170000D03*
X153670000Y-94170000D03*
X153670000Y-78930000D03*
X151130000Y-78930000D03*
X148590000Y-78930000D03*
X146050000Y-78930000D03*
X143510000Y-78930000D03*
X140970000Y-78930000D03*
X138430000Y-78930000D03*
X135890000Y-78930000D03*
X133350000Y-78930000D03*
X130810000Y-78930000D03*
X128270000Y-78930000D03*
X125730000Y-78930000D03*
D15*
X133350000Y-102340000D03*
X134620000Y-102340000D03*
X135890000Y-102340000D03*
X137160000Y-102340000D03*
X138430000Y-102340000D03*
X139700000Y-102340000D03*
X140970000Y-102340000D03*
X142240000Y-102340000D03*
X143510000Y-102340000D03*
X144780000Y-102340000D03*
X146050000Y-102340000D03*
X147320000Y-102340000D03*
X148590000Y-102340000D03*
X149860000Y-102340000D03*
X151130000Y-102340000D03*
D10*
X129470000Y-102340000D03*
X155010000Y-102340000D03*
X125920000Y-106680000D03*
D11*
X160020000Y-100520000D03*
D12*
X160020000Y-103060000D03*
X160020000Y-105600000D03*
M02*
